<?xml version="1.0" encoding="UTF-8"?>
<svg xmlns="http://www.w3.org/2000/svg" version="1.1" viewBox="0 0 841.89 841.89">
  <!-- Generator: Adobe Illustrator 30.3.0, SVG Export Plug-In . SVG Version: 2.1.3 Build 182)  -->
  <defs>
    <style>
      .st0, .st1, .st2 {
        fill: none;
        stroke: #000;
        stroke-linecap: round;
        stroke-linejoin: round;
      }

      .st1 {
        stroke-width: .2px;
      }

      .st2 {
        stroke-width: .5px;
      }

      .st3 {
        fill: #1d1d1b;
      }

      .st4 {
        opacity: .5;
      }
    </style>
  </defs>
  <g id="Layer_1" class="st4">
    <polyline class="st1" points="138.64 573.54 138.64 288.66 387.1 432.12 387.1 716.93"/>
    <polyline class="st1" points="809.44 184.14 812.98 186.23 812.98 471.06"/>
    <line class="st1" x1="-440.62" y1="-66.7" x2="-440.62" y2="-66.7"/>
    <line class="st1" x1="-440.62" y1="-66.7" x2="-440.62" y2="-66.7"/>
    <line class="st1" x1="-440.62" y1="-66.7" x2="-440.62" y2="-66.7"/>
    <line class="st1" x1="-440.62" y1="-66.7" x2="-440.62" y2="-66.7"/>
    <line class="st1" x1="169.96" y1="324.48" x2="169.96" y2="573.54"/>
    <line class="st1" x1="169.9" y1="324.48" x2="169.96" y2="573.54"/>
    <polyline class="st1" points="169.9 324.48 169.84 573.84 169.96 573.54"/>
    <line class="st1" x1="169.84" y1="324.42" x2="169.84" y2="573.84"/>
    <line class="st1" x1="169.72" y1="324.36" x2="169.84" y2="573.84"/>
    <polyline class="st1" points="169.66 324.3 169.48 574.14 169.84 573.84"/>
    <line class="st1" x1="169.48" y1="324.23" x2="169.48" y2="574.14"/>
    <polyline class="st1" points="139.66 574.14 139.66 290.52 139.36 573.84"/>
    <line class="st1" x1="139.36" y1="573.84" x2="139.66" y2="574.14"/>
    <polyline class="st1" points="139.66 290.52 139.3 289.49 139.36 573.84"/>
    <line class="st1" x1="139.3" y1="289.49" x2="139.24" y2="573.54"/>
    <line class="st1" x1="139.24" y1="573.54" x2="139.36" y2="573.84"/>
    <polyline class="st1" points="139.3 289.49 139.24 289.02 139.24 573.54"/>
    <line class="st1" x1="139.24" y1="289.02" x2="139.3" y2="288.6"/>
    <line class="st1" x1="139.3" y1="288.6" x2="139.42" y2="288.3"/>
    <line class="st1" x1="139.42" y1="288.3" x2="139.66" y2="288.06"/>
    <polyline class="st1" points="155.32 316.08 155.68 582.12 155.68 316.26"/>
    <line class="st1" x1="155.32" y1="316.08" x2="155.14" y2="582.3"/>
    <line class="st1" x1="155.14" y1="582.3" x2="155.68" y2="582.12"/>
    <line class="st1" x1="154.96" y1="315.84" x2="155.14" y2="582.3"/>
    <line class="st1" x1="154.96" y1="315.84" x2="154.6" y2="582.36"/>
    <line class="st1" x1="154.6" y1="582.36" x2="155.14" y2="582.3"/>
    <line class="st1" x1="154.6" y1="315.6" x2="154.6" y2="582.36"/>
    <polyline class="st1" points="154.6 315.6 154.18 315.36 154.6 582.36"/>
    <line class="st1" x1="154.18" y1="315.36" x2="154" y2="582.3"/>
    <line class="st1" x1="154" y1="582.3" x2="154.6" y2="582.36"/>
    <polyline class="st1" points="154.18 315.36 153.52 314.52 154 582.3"/>
    <polyline class="st1" points="153.52 314.52 153.52 582.12 154 582.3"/>
    <line class="st1" x1="169.48" y1="324.23" x2="169.48" y2="574.14"/>
    <line class="st1" x1="139.66" y1="288.06" x2="142.18" y2="286.61"/>
    <line class="st1" x1="153.52" y1="314.52" x2="139.66" y2="290.52"/>
    <line class="st1" x1="139.66" y1="290.52" x2="139.66" y2="574.14"/>
    <line class="st1" x1="153.52" y1="314.52" x2="153.52" y2="582.12"/>
    <line class="st1" x1="153.52" y1="582.12" x2="139.66" y2="574.14"/>
    <line class="st1" x1="169.48" y1="574.14" x2="155.68" y2="582.12"/>
    <line class="st1" x1="155.68" y1="316.26" x2="155.68" y2="582.12"/>
    <line class="st1" x1="398.86" y1="421.2" x2="402.4" y2="423.24"/>
    <polyline class="st1" points="398.86 421.2 402.4 423.3 402.4 423.24"/>
    <line class="st1" x1="398.86" y1="421.2" x2="402.4" y2="423.3"/>
    <line class="st1" x1="398.86" y1="421.2" x2="402.4" y2="423.3"/>
    <polyline class="st1" points="398.62 421.38 402.16 423.42 398.62 421.38"/>
    <polyline class="st1" points="402.16 423.42 402.28 423.3 398.74 421.26"/>
    <line class="st1" x1="402.28" y1="423.3" x2="402.4" y2="423.3"/>
    <line class="st1" x1="398.62" y1="421.38" x2="402.16" y2="423.42"/>
    <polyline class="st1" points="398.44 421.43 401.98 423.54 402.16 423.42"/>
    <polyline class="st1" points="153.52 314.52 154.18 315.36 372.16 440.7 153.52 314.52"/>
    <polyline class="st1" points="154.18 315.36 371.8 440.93 372.16 440.7"/>
    <polyline class="st1" points="154.18 315.36 154.6 315.6 371.8 440.93"/>
    <polyline class="st1" points="154.6 315.6 371.74 440.99 371.8 440.93"/>
    <polyline class="st1" points="388.12 431.52 139.66 288.06 387.82 431.7 388.12 431.52"/>
    <polyline class="st1" points="139.66 288.06 139.42 288.3 387.82 431.7"/>
    <polyline class="st1" points="139.42 288.3 139.3 288.6 387.82 431.7"/>
    <polyline class="st1" points="139.3 288.6 387.46 431.88 387.82 431.7"/>
    <polyline class="st1" points="139.3 288.6 139.24 289.02 387.46 431.88"/>
    <polyline class="st1" points="139.24 289.02 387.1 432.12 387.46 431.88"/>
    <polyline class="st1" points="139.24 289.02 139.3 289.49 387.1 432.12"/>
    <polyline class="st1" points="139.3 289.49 386.68 432.36 387.1 432.12"/>
    <polyline class="st1" points="139.3 289.49 139.66 290.52 386.68 432.36"/>
    <polyline class="st1" points="139.66 290.52 386.02 432.72 386.68 432.36"/>
    <line class="st1" x1="372.16" y1="440.7" x2="153.52" y2="314.52"/>
    <line class="st1" x1="386.02" y1="432.72" x2="139.66" y2="290.52"/>
    <line class="st1" x1="139.66" y1="290.52" x2="153.52" y2="314.52"/>
    <line class="st1" x1="372.16" y1="440.7" x2="386.02" y2="432.72"/>
    <line class="st1" x1="388.12" y1="431.52" x2="139.66" y2="288.06"/>
    <line class="st1" x1="401.98" y1="423.54" x2="398.44" y2="421.43"/>
    <line class="st1" x1="142.18" y1="286.61" x2="139.66" y2="288.06"/>
    <line class="st1" x1="388.12" y1="431.52" x2="401.98" y2="423.54"/>
    <polyline class="st1" points="372.16 708.36 372.16 440.7 371.86 708.05"/>
    <line class="st1" x1="371.86" y1="708.05" x2="372.16" y2="708.36"/>
    <polyline class="st1" points="372.16 440.7 371.8 440.93 371.86 708.05"/>
    <line class="st1" x1="371.8" y1="440.93" x2="371.74" y2="707.76"/>
    <line class="st1" x1="371.74" y1="707.76" x2="371.86" y2="708.05"/>
    <polyline class="st1" points="371.8 440.93 371.74 440.99 371.74 707.76"/>
    <polyline class="st1" points="388.12 431.52 387.82 431.7 388.12 716.34 388.12 431.52"/>
    <line class="st1" x1="387.82" y1="431.7" x2="387.64" y2="716.52"/>
    <line class="st1" x1="387.64" y1="716.52" x2="388.12" y2="716.34"/>
    <polyline class="st1" points="387.82 431.7 387.46 431.88 387.64 716.52"/>
    <line class="st1" x1="387.46" y1="431.88" x2="387.1" y2="716.58"/>
    <line class="st1" x1="387.1" y1="716.58" x2="387.64" y2="716.52"/>
    <polyline class="st1" points="387.46 431.88 387.1 432.12 387.1 716.58"/>
    <polyline class="st1" points="387.1 432.12 386.68 432.36 387.1 716.58"/>
    <line class="st1" x1="386.68" y1="432.36" x2="386.5" y2="716.52"/>
    <line class="st1" x1="386.5" y1="716.52" x2="387.1" y2="716.58"/>
    <polyline class="st1" points="386.68 432.36 386.02 432.72 386.5 716.52"/>
    <polyline class="st1" points="386.02 432.72 386.02 716.34 386.5 716.52"/>
    <line class="st1" x1="402.4" y1="423.24" x2="402.4" y2="707.76"/>
    <polyline class="st1" points="402.4 423.24 402.4 423.3 402.4 707.76"/>
    <polyline class="st1" points="402.4 423.3 402.28 708.05 402.4 707.76"/>
    <polyline class="st1" points="402.4 423.3 402.28 423.3 402.28 708.05"/>
    <polyline class="st1" points="402.28 423.3 402.16 423.42 402.28 708.05"/>
    <polyline class="st1" points="402.16 423.42 401.98 708.36 402.28 708.05"/>
    <polyline class="st1" points="402.16 423.42 401.98 423.54 401.98 708.36"/>
    <line class="st1" x1="372.16" y1="708.36" x2="372.16" y2="440.7"/>
    <line class="st1" x1="386.02" y1="716.34" x2="386.02" y2="432.72"/>
    <line class="st1" x1="386.02" y1="432.72" x2="372.16" y2="440.7"/>
    <line class="st1" x1="372.16" y1="708.36" x2="386.02" y2="716.34"/>
    <line class="st1" x1="388.12" y1="716.34" x2="388.12" y2="431.52"/>
    <line class="st1" x1="401.98" y1="708.36" x2="401.98" y2="423.54"/>
    <line class="st1" x1="401.98" y1="423.54" x2="388.12" y2="431.52"/>
    <line class="st1" x1="388.12" y1="716.34" x2="401.98" y2="708.36"/>
    <polyline class="st1" points="549.64 334.14 549.64 337.43 549.64 334.14"/>
    <polyline class="st1" points="549.28 334.38 549.28 337.14 549.64 337.43"/>
    <line class="st1" x1="549.28" y1="334.38" x2="549.28" y2="337.14"/>
    <polyline class="st1" points="549.16 334.43 549.16 336.84 549.28 337.14"/>
    <polyline class="st1" points="565.6 324.96 565.6 345.42 565.6 324.96"/>
    <polyline class="st1" points="565.12 325.2 565.12 345.6 565.6 345.42"/>
    <line class="st1" x1="565.12" y1="325.2" x2="565.12" y2="345.6"/>
    <line class="st1" x1="565.12" y1="325.26" x2="565.12" y2="345.6"/>
    <polyline class="st1" points="564.58 325.56 564.52 345.72 565.12 345.6"/>
    <line class="st1" x1="564.52" y1="325.56" x2="564.52" y2="345.72"/>
    <line class="st1" x1="564.52" y1="325.56" x2="564.52" y2="345.72"/>
    <polyline class="st1" points="563.98 325.92 563.98 345.6 564.52 345.72"/>
    <line class="st1" x1="563.92" y1="325.92" x2="563.98" y2="345.6"/>
    <polyline class="st1" points="563.5 326.16 563.5 345.42 563.98 345.6"/>
    <line class="st1" x1="579.88" y1="316.68" x2="579.88" y2="336.84"/>
    <line class="st1" x1="579.88" y1="316.68" x2="579.88" y2="336.84"/>
    <line class="st1" x1="579.76" y1="316.73" x2="579.76" y2="337.14"/>
    <line class="st1" x1="579.76" y1="337.14" x2="579.88" y2="336.84"/>
    <line class="st1" x1="579.76" y1="316.73" x2="579.76" y2="337.14"/>
    <polyline class="st1" points="579.46 316.92 579.46 337.43 579.76 337.14"/>
    <line class="st1" x1="579.46" y1="316.98" x2="579.46" y2="337.43"/>
    <line class="st1" x1="549.64" y1="334.14" x2="549.64" y2="337.43"/>
    <line class="st1" x1="563.5" y1="326.16" x2="563.5" y2="345.42"/>
    <line class="st1" x1="565.6" y1="324.96" x2="565.6" y2="345.42"/>
    <line class="st1" x1="579.46" y1="316.98" x2="579.46" y2="337.43"/>
    <line class="st1" x1="579.46" y1="337.43" x2="565.6" y2="345.42"/>
    <line class="st1" x1="563.5" y1="345.42" x2="549.64" y2="337.43"/>
    <polyline class="st1" points="794.56 192.78 798.1 194.82 794.56 192.78"/>
    <polyline class="st1" points="794.32 192.9 797.86 194.94 798.1 194.82"/>
    <polyline class="st1" points="794.02 193.08 797.62 195.11 797.86 194.94"/>
    <line class="st1" x1="794.02" y1="193.08" x2="797.62" y2="195.11"/>
    <line class="st1" x1="794.02" y1="193.08" x2="797.62" y2="195.11"/>
    <polyline class="st1" points="793.48 193.38 797.02 195.42 793.48 193.38"/>
    <polyline class="st1" points="797.02 195.42 797.32 195.23 793.78 193.2"/>
    <line class="st1" x1="797.32" y1="195.23" x2="797.62" y2="195.11"/>
    <line class="st1" x1="793.48" y1="193.38" x2="797.02" y2="195.42"/>
    <polyline class="st1" points="792.88 193.73 796.42 195.78 797.02 195.42"/>
    <line class="st1" x1="792.88" y1="193.73" x2="796.42" y2="195.78"/>
    <polyline class="st1" points="792.4 193.98 795.94 196.02 796.42 195.78"/>
    <polyline class="st1" points="778.54 202.02 782.14 204.06 778.54 202.02"/>
    <polyline class="st1" points="778.24 202.2 781.78 204.23 782.14 204.06"/>
    <line class="st1" x1="778.24" y1="202.2" x2="781.78" y2="204.23"/>
    <polyline class="st1" points="778.12 202.26 781.66 204.3 781.78 204.23"/>
    <line class="st1" x1="808.84" y1="184.49" x2="812.38" y2="186.6"/>
    <line class="st1" x1="808.84" y1="184.49" x2="812.38" y2="186.6"/>
    <polyline class="st1" points="808.78 184.56 812.32 186.6 812.38 186.6"/>
    <line class="st1" x1="808.78" y1="184.56" x2="812.32" y2="186.6"/>
    <polyline class="st1" points="808.6 184.61 812.14 186.66 812.32 186.6"/>
    <polyline class="st1" points="808.36 184.8 811.9 186.84 808.36 184.8"/>
    <line class="st1" x1="811.9" y1="186.84" x2="812.14" y2="186.66"/>
    <line class="st1" x1="811.9" y1="186.84" x2="808.36" y2="184.8"/>
    <line class="st1" x1="798.1" y1="194.82" x2="811.9" y2="186.84"/>
    <line class="st1" x1="795.94" y1="196.02" x2="792.4" y2="193.98"/>
    <line class="st1" x1="782.14" y1="204.06" x2="795.94" y2="196.02"/>
    <line class="st1" x1="798.1" y1="194.82" x2="794.56" y2="192.78"/>
    <line class="st1" x1="782.14" y1="204.06" x2="778.54" y2="202.02"/>
    <line class="st1" x1="812.38" y1="186.6" x2="812.38" y2="471.06"/>
    <polyline class="st1" points="812.38 186.6 812.32 186.6 812.38 471.06"/>
    <line class="st1" x1="812.32" y1="186.6" x2="812.26" y2="471.36"/>
    <line class="st1" x1="812.26" y1="471.36" x2="812.38" y2="471.06"/>
    <polyline class="st1" points="812.32 186.6 812.14 186.66 812.26 471.36"/>
    <polyline class="st1" points="812.14 186.66 811.9 471.66 812.26 471.36"/>
    <polyline class="st1" points="812.14 186.66 811.9 186.84 811.9 471.66"/>
    <polyline class="st1" points="782.14 204.06 781.78 204.23 782.14 471.66 782.14 204.06"/>
    <polyline class="st1" points="781.78 204.23 781.78 471.36 782.14 471.66"/>
    <polyline class="st1" points="781.78 204.23 781.66 204.3 781.78 471.36"/>
    <polyline class="st1" points="781.66 204.3 781.66 471.06 781.78 471.36"/>
    <polyline class="st1" points="798.1 194.82 797.86 194.94 798.1 479.64 798.1 194.82"/>
    <polyline class="st1" points="797.86 194.94 797.62 479.82 798.1 479.64"/>
    <polyline class="st1" points="797.86 194.94 797.62 195.11 797.62 479.82"/>
    <polyline class="st1" points="797.62 195.11 797.32 195.23 797.62 479.82"/>
    <polyline class="st1" points="797.32 195.23 797.02 479.93 797.62 479.82"/>
    <polyline class="st1" points="797.32 195.23 797.02 195.42 797.02 479.93"/>
    <polyline class="st1" points="797.02 195.42 796.42 195.78 797.02 479.93"/>
    <polyline class="st1" points="796.42 195.78 796.42 479.82 797.02 479.93"/>
    <polyline class="st1" points="796.42 195.78 795.94 196.02 796.42 479.82"/>
    <polyline class="st1" points="795.94 196.02 795.94 479.64 796.42 479.82"/>
    <line class="st1" x1="811.9" y1="471.66" x2="811.9" y2="186.84"/>
    <line class="st1" x1="811.9" y1="186.84" x2="798.1" y2="194.82"/>
    <line class="st1" x1="798.1" y1="479.64" x2="811.9" y2="471.66"/>
    <line class="st1" x1="782.14" y1="471.66" x2="782.14" y2="204.06"/>
    <line class="st1" x1="795.94" y1="479.64" x2="795.94" y2="196.02"/>
    <line class="st1" x1="795.94" y1="196.02" x2="782.14" y2="204.06"/>
    <line class="st1" x1="782.14" y1="471.66" x2="795.94" y2="479.64"/>
    <line class="st1" x1="798.1" y1="479.64" x2="798.1" y2="194.82"/>
    <polyline class="st1" points="579.82 339.06 579.88 339.06 579.82 337.26 579.82 339.06"/>
    <polyline class="st1" points="579.88 339.06 580 337.08 579.82 337.26"/>
    <polyline class="st1" points="579.88 339.06 580.06 338.88 580 337.08"/>
    <polyline class="st1" points="580.06 338.88 580.12 336.84 580 337.08"/>
    <polyline class="st1" points="580.06 338.88 580.12 338.64 580.12 336.84"/>
    <line class="st1" x1="580" y1="336.6" x2="580.12" y2="336.84"/>
    <line class="st1" x1="579.88" y1="336.48" x2="580" y2="336.6"/>
    <polyline class="st1" points="563.8 347.46 563.98 347.58 563.8 345.66 563.8 347.46"/>
    <polyline class="st1" points="563.98 347.58 564.16 345.78 563.8 345.66"/>
    <polyline class="st1" points="563.98 347.58 564.28 347.64 564.16 345.78"/>
    <polyline class="st1" points="564.28 347.64 564.52 345.84 564.16 345.78"/>
    <polyline class="st1" points="564.28 347.64 564.7 347.64 564.52 345.84"/>
    <polyline class="st1" points="564.7 347.64 564.94 345.78 564.52 345.84"/>
    <polyline class="st1" points="564.7 347.64 565 347.58 564.94 345.78"/>
    <polyline class="st1" points="565 347.58 565.24 345.66 564.94 345.78"/>
    <polyline class="st1" points="565 347.58 565.24 347.46 565.24 345.66"/>
    <line class="st1" x1="549.04" y1="336.6" x2="549.16" y2="336.48"/>
    <polyline class="st1" points="548.98 338.58 548.98 336.84 549.04 336.6"/>
    <polyline class="st1" points="548.98 338.58 548.98 338.82 548.98 336.84"/>
    <polyline class="st1" points="548.98 338.82 549.04 337.08 548.98 336.84"/>
    <polyline class="st1" points="548.98 338.82 549.16 339 549.04 337.08"/>
    <polyline class="st1" points="549.16 339 549.28 337.26 549.04 337.08"/>
    <polyline class="st1" points="549.16 339 549.28 339.06 549.28 337.26"/>
    <polyline class="st1" points="563.8 347.46 549.28 339.06 563.86 347.52 563.8 347.46"/>
    <polyline class="st1" points="549.28 339.06 549.28 339.12 563.86 347.52"/>
    <polyline class="st1" points="549.28 339.12 549.28 339.18 563.86 347.52"/>
    <polyline class="st1" points="549.28 339.18 563.86 347.58 563.86 347.52"/>
    <polyline class="st1" points="549.28 339.18 549.34 339.18 563.86 347.58"/>
    <polyline class="st1" points="549.34 339.18 563.92 347.58 563.86 347.58"/>
    <line class="st1" x1="548.98" y1="338.82" x2="548.98" y2="338.58"/>
    <line class="st1" x1="549.04" y1="338.82" x2="548.98" y2="338.82"/>
    <polyline class="st1" points="549.04 338.82 549.16 339 548.98 338.82"/>
    <polyline class="st1" points="549.04 338.82 549.16 339.06 549.16 339"/>
    <polyline class="st1" points="549.16 339.06 549.28 339.06 549.16 339"/>
    <polyline class="st1" points="549.16 339.06 549.28 339.12 549.28 339.06"/>
    <line class="st1" x1="549.04" y1="338.88" x2="549.04" y2="338.82"/>
    <line class="st1" x1="549.04" y1="338.88" x2="549.16" y2="339.06"/>
    <polyline class="st1" points="549.04 338.88 549.16 339.12 549.16 339.06"/>
    <line class="st1" x1="549.16" y1="339.12" x2="549.28" y2="339.12"/>
    <polyline class="st1" points="549.16 339.12 549.28 339.18 549.28 339.12"/>
    <line class="st1" x1="549.34" y1="339.18" x2="549.28" y2="339.18"/>
    <polyline class="st1" points="563.8 347.46 563.86 347.52 563.98 347.58 563.8 347.46"/>
    <polyline class="st1" points="563.86 347.52 563.98 347.58 563.98 347.58"/>
    <polyline class="st1" points="563.98 347.58 564.28 347.64 563.98 347.58"/>
    <polyline class="st1" points="563.98 347.58 564.28 347.7 564.28 347.64"/>
    <polyline class="st1" points="564.28 347.7 564.7 347.64 564.28 347.64"/>
    <polyline class="st1" points="564.28 347.7 564.7 347.7 564.7 347.64"/>
    <polyline class="st1" points="564.7 347.7 565 347.58 564.7 347.64"/>
    <polyline class="st1" points="564.7 347.7 565 347.64 565 347.58"/>
    <polyline class="st1" points="565 347.64 565.24 347.46 565 347.58"/>
    <polyline class="st1" points="565 347.64 565.24 347.52 565.24 347.46"/>
    <polyline class="st1" points="563.86 347.52 563.86 347.58 563.98 347.58"/>
    <polyline class="st1" points="563.86 347.58 563.98 347.64 563.98 347.58"/>
    <line class="st1" x1="563.98" y1="347.64" x2="564.28" y2="347.7"/>
    <polyline class="st1" points="563.98 347.64 564.34 347.7 564.28 347.7"/>
    <line class="st1" x1="564.34" y1="347.7" x2="564.7" y2="347.7"/>
    <polyline class="st1" points="564.34 347.7 564.7 347.76 564.7 347.7"/>
    <line class="st1" x1="564.7" y1="347.76" x2="565" y2="347.64"/>
    <polyline class="st1" points="564.7 347.76 565 347.7 565 347.64"/>
    <line class="st1" x1="565" y1="347.7" x2="565.24" y2="347.52"/>
    <polyline class="st1" points="565 347.7 565.24 347.58 565.24 347.52"/>
    <polyline class="st1" points="563.86 347.58 563.92 347.58 563.98 347.64"/>
    <polyline class="st1" points="563.92 347.58 564.04 347.64 563.98 347.64"/>
    <line class="st1" x1="564.04" y1="347.64" x2="564.34" y2="347.7"/>
    <polyline class="st1" points="564.04 347.64 564.34 347.76 564.34 347.7"/>
    <line class="st1" x1="564.34" y1="347.76" x2="564.7" y2="347.76"/>
    <polyline class="st1" points="564.34 347.76 564.64 347.76 564.7 347.76"/>
    <line class="st1" x1="564.64" y1="347.76" x2="565" y2="347.7"/>
    <polyline class="st1" points="564.64 347.76 565 347.7 565 347.7"/>
    <line class="st1" x1="565" y1="347.7" x2="565.24" y2="347.58"/>
    <polyline class="st1" points="565 347.7 565.18 347.58 565.24 347.58"/>
    <line class="st1" x1="579.7" y1="339.18" x2="565.18" y2="347.58"/>
    <polyline class="st1" points="579.7 339.18 579.76 339.18 565.18 347.58"/>
    <polyline class="st1" points="579.76 339.18 565.24 347.58 565.18 347.58"/>
    <polyline class="st1" points="579.76 339.18 579.82 339.12 565.24 347.58"/>
    <polyline class="st1" points="579.82 339.12 565.24 347.52 565.24 347.58"/>
    <polyline class="st1" points="579.82 339.12 565.24 347.46 565.24 347.52"/>
    <polyline class="st1" points="579.82 339.12 579.82 339.06 565.24 347.46"/>
    <line class="st1" x1="579.76" y1="339.18" x2="579.7" y2="339.18"/>
    <polyline class="st1" points="580 338.93 579.82 339.12 579.76 339.18"/>
    <line class="st1" x1="579.82" y1="339.12" x2="579.7" y2="339.18"/>
    <polyline class="st1" points="579.82 339.12 579.76 339.18 579.7 339.18"/>
    <polyline class="st1" points="580.06 338.7 580.06 338.88 580 338.93"/>
    <line class="st1" x1="580.06" y1="338.88" x2="579.82" y2="339.12"/>
    <polyline class="st1" points="580.06 338.88 579.88 339.06 579.82 339.12"/>
    <line class="st1" x1="579.88" y1="339.06" x2="579.76" y2="339.18"/>
    <polyline class="st1" points="579.88 339.06 579.82 339.12 579.76 339.18"/>
    <line class="st1" x1="580.12" y1="338.64" x2="580.06" y2="338.7"/>
    <line class="st1" x1="580.12" y1="338.64" x2="580.06" y2="338.88"/>
    <polyline class="st1" points="580.12 338.64 580.06 338.88 580.06 338.88"/>
    <line class="st1" x1="580.06" y1="338.88" x2="579.88" y2="339.06"/>
    <polyline class="st1" points="580.06 338.88 579.88 339.06 579.88 339.06"/>
    <line class="st1" x1="579.88" y1="339.06" x2="579.82" y2="339.12"/>
    <polyline class="st1" points="579.88 339.06 579.82 339.06 579.82 339.12"/>
    <line class="st1" x1="549.28" y1="337.26" x2="549.28" y2="339.06"/>
    <line class="st1" x1="549.28" y1="339.06" x2="563.8" y2="347.46"/>
    <line class="st1" x1="563.8" y1="347.46" x2="563.8" y2="345.66"/>
    <line class="st1" x1="549.28" y1="337.08" x2="549.28" y2="337.26"/>
    <line class="st1" x1="549.28" y1="337.26" x2="563.8" y2="345.66"/>
    <line class="st1" x1="563.8" y1="345.66" x2="564.1" y2="345.66"/>
    <line class="st1" x1="565" y1="345.66" x2="565.24" y2="345.66"/>
    <line class="st1" x1="565.24" y1="345.66" x2="579.82" y2="337.26"/>
    <line class="st1" x1="579.82" y1="337.26" x2="579.82" y2="337.08"/>
    <line class="st1" x1="565.24" y1="345.66" x2="565.24" y2="347.46"/>
    <line class="st1" x1="565.24" y1="347.46" x2="579.82" y2="339.06"/>
    <line class="st1" x1="579.82" y1="339.06" x2="579.82" y2="337.26"/>
    <line class="st1" x1="554.56" y1="343.08" x2="554.44" y2="342.96"/>
    <line class="st1" x1="554.44" y1="342.96" x2="554.32" y2="342.84"/>
    <line class="st1" x1="554.32" y1="342.84" x2="554.26" y2="342.72"/>
    <line class="st1" x1="554.26" y1="342.72" x2="554.26" y2="342.54"/>
    <line class="st1" x1="560.38" y1="346.43" x2="554.56" y2="343.08"/>
    <polyline class="st1" points="560.38 346.43 560.32 346.38 554.56 343.08"/>
    <polyline class="st1" points="560.32 346.38 554.44 342.96 554.56 343.08"/>
    <polyline class="st1" points="560.32 346.38 554.32 342.84 554.44 342.96"/>
    <polyline class="st1" points="560.32 346.38 560.32 346.32 554.32 342.84"/>
    <polyline class="st1" points="560.32 346.32 560.26 346.2 554.32 342.84"/>
    <polyline class="st1" points="560.26 346.02 554.26 342.54 560.26 346.2 560.26 346.02"/>
    <polyline class="st1" points="554.26 342.54 554.26 342.72 560.26 346.2"/>
    <line class="st1" x1="554.26" y1="342.72" x2="554.32" y2="342.84"/>
    <line class="st1" x1="574.84" y1="342.54" x2="574.78" y2="342.72"/>
    <line class="st1" x1="574.78" y1="342.72" x2="574.78" y2="342.84"/>
    <line class="st1" x1="574.78" y1="342.84" x2="574.66" y2="342.96"/>
    <line class="st1" x1="574.66" y1="342.96" x2="574.54" y2="343.08"/>
    <line class="st1" x1="568.66" y1="346.43" x2="567.16" y2="346.43"/>
    <line class="st1" x1="561.88" y1="346.43" x2="560.38" y2="346.43"/>
    <polyline class="st1" points="568.66 346.43 568.72 346.38 567.22 346.43"/>
    <line class="st1" x1="561.88" y1="346.43" x2="560.38" y2="346.43"/>
    <line class="st1" x1="568.72" y1="346.38" x2="567.28" y2="346.38"/>
    <polyline class="st1" points="561.82 346.38 560.32 346.38 560.38 346.43"/>
    <line class="st1" x1="568.72" y1="346.38" x2="567.28" y2="346.38"/>
    <polyline class="st1" points="561.7 346.32 560.32 346.32 560.32 346.38"/>
    <polyline class="st1" points="568.72 346.38 568.78 346.32 567.4 346.32"/>
    <line class="st1" x1="561.64" y1="346.32" x2="560.32" y2="346.32"/>
    <polyline class="st1" points="568.78 346.32 568.78 346.2 567.58 346.2"/>
    <line class="st1" x1="561.64" y1="346.32" x2="560.32" y2="346.32"/>
    <line class="st1" x1="568.78" y1="346.02" x2="567.88" y2="346.02"/>
    <polyline class="st1" points="561.22 346.02 560.26 346.02 561.22 346.08"/>
    <polyline class="st1" points="567.64 346.2 568.78 346.2 568.78 346.02"/>
    <polyline class="st1" points="560.26 346.02 560.26 346.2 561.46 346.2"/>
    <line class="st1" x1="567.64" y1="346.2" x2="568.78" y2="346.2"/>
    <line class="st1" x1="560.26" y1="346.2" x2="560.32" y2="346.32"/>
    <line class="st1" x1="-440.62" y1="-66.7" x2="-440.62" y2="-66.7"/>
    <line class="st1" x1="574.54" y1="343.08" x2="568.66" y2="346.43"/>
    <polyline class="st1" points="574.54 343.08 574.66 342.96 568.66 346.43"/>
    <polyline class="st1" points="574.66 342.96 568.72 346.38 568.66 346.43"/>
    <polyline class="st1" points="574.66 342.96 568.78 346.32 568.72 346.38"/>
    <polyline class="st1" points="574.66 342.96 574.78 342.84 568.78 346.32"/>
    <polyline class="st1" points="574.78 342.84 574.78 342.72 568.78 346.32"/>
    <polyline class="st1" points="574.84 342.54 568.78 346.02 574.78 342.72 574.84 342.54"/>
    <polyline class="st1" points="568.78 346.02 568.78 346.2 574.78 342.72"/>
    <line class="st1" x1="568.78" y1="346.2" x2="568.78" y2="346.32"/>
    <line class="st1" x1="574.84" y1="342.54" x2="574.84" y2="342.06"/>
    <line class="st1" x1="568.78" y1="346.02" x2="574.84" y2="342.54"/>
    <line class="st1" x1="574.72" y1="342.96" x2="574.66" y2="342.96"/>
    <line class="st1" x1="554.26" y1="342.54" x2="554.26" y2="342.06"/>
    <line class="st1" x1="560.26" y1="346.02" x2="560.26" y2="345.54"/>
    <line class="st1" x1="554.26" y1="342.54" x2="560.26" y2="346.02"/>
    <line class="st1" x1="568.78" y1="346.02" x2="568.78" y2="345.54"/>
    <line class="st1" x1="560.26" y1="346.02" x2="561.22" y2="346.02"/>
    <line class="st1" x1="567.88" y1="346.02" x2="568.78" y2="346.02"/>
    <line class="st1" x1="169.96" y1="573.18" x2="170.08" y2="573.3"/>
    <line class="st1" x1="170.08" y1="573.3" x2="170.14" y2="573.54"/>
    <line class="st1" x1="170.14" y1="573.54" x2="170.14" y2="575.46"/>
    <polyline class="st1" points="170.14 573.54 170.08 573.72 170.14 575.46"/>
    <polyline class="st1" points="170.08 573.72 170.02 575.64 170.14 575.46"/>
    <polyline class="st1" points="170.08 573.72 169.84 573.9 170.02 575.64"/>
    <polyline class="st1" points="169.84 573.9 169.84 575.76 170.02 575.64"/>
    <polyline class="st1" points="139.3 573.9 139.12 573.72 139.3 575.76 139.3 573.9"/>
    <polyline class="st1" points="139.12 573.72 139.12 575.58 139.3 575.76"/>
    <polyline class="st1" points="139.12 573.72 139.06 575.4 139.12 575.58"/>
    <polyline class="st1" points="139.12 573.72 139.06 573.54 139.06 575.4"/>
    <line class="st1" x1="139.06" y1="573.54" x2="139.12" y2="573.3"/>
    <line class="st1" x1="139.12" y1="573.3" x2="139.24" y2="573.18"/>
    <line class="st1" x1="170.08" y1="575.52" x2="169.96" y2="575.76"/>
    <polyline class="st1" points="169.96 575.76 169.84 575.88 169.78 575.88"/>
    <line class="st1" x1="170.14" y1="575.46" x2="170.08" y2="575.52"/>
    <line class="st1" x1="170.14" y1="575.46" x2="169.96" y2="575.76"/>
    <polyline class="st1" points="170.14 575.46 170.02 575.7 169.96 575.76"/>
    <line class="st1" x1="170.02" y1="575.7" x2="169.84" y2="575.88"/>
    <polyline class="st1" points="170.02 575.7 169.84 575.82 169.84 575.88"/>
    <line class="st1" x1="-440.62" y1="-66.7" x2="-440.62" y2="-66.7"/>
    <line class="st1" x1="170.14" y1="575.46" x2="170.02" y2="575.7"/>
    <polyline class="st1" points="170.14 575.46 170.02 575.64 170.02 575.7"/>
    <line class="st1" x1="170.02" y1="575.64" x2="169.84" y2="575.82"/>
    <polyline class="st1" points="170.02 575.64 169.84 575.76 169.84 575.82"/>
    <polyline class="st1" points="169.84 575.76 155.32 584.16 169.84 575.82 169.84 575.76"/>
    <polyline class="st1" points="155.32 584.16 155.32 584.22 169.84 575.82"/>
    <polyline class="st1" points="155.32 584.22 155.26 584.28 169.84 575.82"/>
    <polyline class="st1" points="155.26 584.28 169.84 575.88 169.84 575.82"/>
    <polyline class="st1" points="155.26 584.28 155.2 584.28 169.84 575.88"/>
    <polyline class="st1" points="155.2 584.28 169.78 575.88 169.84 575.88"/>
    <polyline class="st1" points="153.88 584.16 153.88 584.22 154 584.22 153.88 584.16"/>
    <polyline class="st1" points="153.88 584.22 154.18 584.34 154 584.22"/>
    <polyline class="st1" points="154.18 584.34 154.18 584.28 154 584.22"/>
    <polyline class="st1" points="154.18 584.34 154.36 584.34 154.18 584.28"/>
    <polyline class="st1" points="153.88 584.22 153.88 584.28 154.18 584.34"/>
    <polyline class="st1" points="153.88 584.28 154.18 584.4 154.18 584.34"/>
    <polyline class="st1" points="154.18 584.4 154.54 584.4 154.18 584.34"/>
    <polyline class="st1" points="154.18 584.4 154.54 584.4 154.54 584.4"/>
    <polyline class="st1" points="154.54 584.4 154.9 584.34 154.54 584.4"/>
    <polyline class="st1" points="154.54 584.4 154.9 584.4 154.9 584.34"/>
    <polyline class="st1" points="154.9 584.4 155.2 584.22 154.9 584.34"/>
    <polyline class="st1" points="154.9 584.4 155.2 584.28 155.2 584.22"/>
    <polyline class="st1" points="155.2 584.28 155.32 584.22 155.2 584.22"/>
    <polyline class="st1" points="155.2 584.28 155.26 584.28 155.32 584.22"/>
    <polyline class="st1" points="153.88 584.28 153.94 584.28 154.18 584.4"/>
    <polyline class="st1" points="153.94 584.28 154.24 584.4 154.18 584.4"/>
    <line class="st1" x1="154.24" y1="584.4" x2="154.54" y2="584.4"/>
    <polyline class="st1" points="154.24 584.4 154.54 584.46 154.54 584.4"/>
    <line class="st1" x1="154.54" y1="584.46" x2="154.9" y2="584.4"/>
    <polyline class="st1" points="154.54 584.46 154.9 584.4 154.9 584.4"/>
    <line class="st1" x1="154.9" y1="584.4" x2="155.2" y2="584.28"/>
    <polyline class="st1" points="154.9 584.4 155.14 584.34 155.2 584.28"/>
    <line class="st1" x1="155.14" y1="584.34" x2="155.26" y2="584.28"/>
    <polyline class="st1" points="155.14 584.34 155.2 584.28 155.26 584.28"/>
    <polyline class="st1" points="155.32 584.22 155.32 584.16 155.2 584.22"/>
    <polyline class="st1" points="155.32 584.16 155.26 584.22 155.2 584.22"/>
    <polyline class="st1" points="155.26 584.22 155.08 584.28 155.2 584.22"/>
    <line class="st1" x1="155.08" y1="584.28" x2="154.9" y2="584.34"/>
    <polyline class="st1" points="155.08 584.28 154.9 584.28 154.9 584.34"/>
    <polyline class="st1" points="154.9 584.28 154.72 584.34 154.9 584.34"/>
    <line class="st1" x1="154.72" y1="584.34" x2="154.54" y2="584.4"/>
    <polyline class="st1" points="154.72 584.34 154.54 584.34 154.54 584.4"/>
    <polyline class="st1" points="154.54 584.34 154.36 584.34 154.54 584.4"/>
    <polyline class="st1" points="153.88 584.16 139.3 575.76 153.88 584.22 153.88 584.16"/>
    <polyline class="st1" points="139.3 575.76 139.36 575.82 153.88 584.22"/>
    <polyline class="st1" points="139.36 575.82 139.36 575.88 153.88 584.22"/>
    <polyline class="st1" points="139.36 575.88 153.88 584.28 153.88 584.22"/>
    <polyline class="st1" points="139.36 575.88 139.42 575.88 153.88 584.28"/>
    <polyline class="st1" points="139.42 575.88 153.94 584.28 153.88 584.28"/>
    <line class="st1" x1="-440.62" y1="-66.7" x2="-440.62" y2="-66.7"/>
    <polyline class="st1" points="139.06 575.4 139.12 575.58 139.06 575.4"/>
    <polyline class="st1" points="139.06 575.4 139.12 575.64 139.12 575.58"/>
    <polyline class="st1" points="139.12 575.64 139.3 575.76 139.12 575.58"/>
    <polyline class="st1" points="139.12 575.64 139.36 575.82 139.3 575.76"/>
    <line class="st1" x1="139.18" y1="575.7" x2="139.12" y2="575.64"/>
    <line class="st1" x1="139.18" y1="575.7" x2="139.36" y2="575.82"/>
    <polyline class="st1" points="139.18 575.7 139.36 575.88 139.36 575.82"/>
    <line class="st1" x1="139.42" y1="575.88" x2="139.36" y2="575.88"/>
    <polyline class="st1" points="155.32 584.16 155.32 582.3 155.26 584.22 155.32 584.16"/>
    <polyline class="st1" points="155.32 582.3 155.08 584.28 155.26 584.22"/>
    <polyline class="st1" points="155.32 582.3 154.96 582.48 155.08 584.28"/>
    <polyline class="st1" points="154.96 582.48 154.9 584.28 155.08 584.28"/>
    <polyline class="st1" points="154.96 582.48 154.72 584.34 154.9 584.28"/>
    <polyline class="st1" points="154.96 582.48 154.6 582.48 154.72 584.34"/>
    <polyline class="st1" points="154.6 582.48 154.54 584.34 154.72 584.34"/>
    <polyline class="st1" points="154.6 582.48 154.36 584.34 154.54 584.34"/>
    <polyline class="st1" points="154.6 582.48 154.18 582.48 154.36 584.34"/>
    <polyline class="st1" points="154.18 582.48 154.18 584.28 154.36 584.34"/>
    <polyline class="st1" points="154.18 582.48 154 584.22 154.18 584.28"/>
    <polyline class="st1" points="154.18 582.48 153.88 582.3 154 584.22"/>
    <polyline class="st1" points="153.88 582.3 153.88 584.16 154 584.22"/>
    <line class="st1" x1="169.84" y1="573.78" x2="169.84" y2="573.9"/>
    <line class="st1" x1="169.84" y1="573.9" x2="169.84" y2="575.76"/>
    <line class="st1" x1="139.3" y1="575.76" x2="139.3" y2="573.9"/>
    <line class="st1" x1="139.3" y1="573.9" x2="139.3" y2="573.78"/>
    <line class="st1" x1="153.88" y1="582.3" x2="139.3" y2="573.9"/>
    <line class="st1" x1="169.84" y1="573.9" x2="155.32" y2="582.3"/>
    <line class="st1" x1="169.84" y1="575.76" x2="155.32" y2="584.16"/>
    <line class="st1" x1="153.88" y1="584.16" x2="139.3" y2="575.76"/>
    <line class="st1" x1="155.32" y1="584.16" x2="155.32" y2="582.3"/>
    <line class="st1" x1="155.32" y1="582.3" x2="155.02" y2="582.3"/>
    <line class="st1" x1="154.18" y1="582.3" x2="153.88" y2="582.3"/>
    <line class="st1" x1="153.88" y1="582.3" x2="153.88" y2="584.16"/>
    <line class="st1" x1="144.58" y1="579.78" x2="144.46" y2="579.66"/>
    <line class="st1" x1="144.46" y1="579.66" x2="144.4" y2="579.54"/>
    <line class="st1" x1="144.4" y1="579.54" x2="144.34" y2="579.42"/>
    <line class="st1" x1="144.34" y1="579.42" x2="144.28" y2="579.24"/>
    <line class="st1" x1="150.46" y1="583.14" x2="144.58" y2="579.78"/>
    <polyline class="st1" points="150.46 583.14 150.4 583.08 144.58 579.78"/>
    <polyline class="st1" points="150.4 583.08 144.46 579.66 144.58 579.78"/>
    <polyline class="st1" points="150.4 583.08 144.4 579.54 144.46 579.66"/>
    <polyline class="st1" points="150.4 583.08 150.34 583.02 144.4 579.54"/>
    <polyline class="st1" points="150.34 583.02 150.34 582.9 144.4 579.54"/>
    <polyline class="st1" points="150.34 582.72 144.28 579.24 150.34 582.9 150.34 582.72"/>
    <polyline class="st1" points="144.28 579.24 144.34 579.42 150.34 582.9"/>
    <line class="st1" x1="144.34" y1="579.42" x2="144.4" y2="579.54"/>
    <line class="st1" x1="158.74" y1="583.14" x2="157.24" y2="583.14"/>
    <line class="st1" x1="151.96" y1="583.14" x2="150.46" y2="583.14"/>
    <polyline class="st1" points="158.74 583.14 158.8 583.08 157.3 583.08"/>
    <line class="st1" x1="151.96" y1="583.14" x2="150.46" y2="583.14"/>
    <line class="st1" x1="158.8" y1="583.08" x2="157.3" y2="583.08"/>
    <polyline class="st1" points="151.84 583.08 150.4 583.08 150.46 583.14"/>
    <line class="st1" x1="158.8" y1="583.08" x2="157.36" y2="583.08"/>
    <polyline class="st1" points="151.72 583.02 150.34 583.02 150.4 583.08"/>
    <polyline class="st1" points="158.8 583.08 158.8 583.02 157.48 583.02"/>
    <line class="st1" x1="151.72" y1="583.02" x2="150.34" y2="583.02"/>
    <polyline class="st1" points="158.8 583.02 158.86 582.9 157.66 582.9"/>
    <line class="st1" x1="151.66" y1="582.96" x2="150.34" y2="583.02"/>
    <line class="st1" x1="158.86" y1="582.72" x2="157.9" y2="582.72"/>
    <polyline class="st1" points="151.24 582.72 150.34 582.72 151.3 582.72"/>
    <polyline class="st1" points="157.72 582.84 158.86 582.9 158.86 582.72"/>
    <polyline class="st1" points="150.34 582.72 150.34 582.9 151.48 582.9"/>
    <line class="st1" x1="157.66" y1="582.9" x2="158.86" y2="582.9"/>
    <line class="st1" x1="150.34" y1="582.9" x2="150.34" y2="583.02"/>
    <line class="st1" x1="164.86" y1="579.24" x2="164.86" y2="579.42"/>
    <line class="st1" x1="164.86" y1="579.42" x2="164.8" y2="579.54"/>
    <line class="st1" x1="164.8" y1="579.54" x2="164.74" y2="579.66"/>
    <line class="st1" x1="164.74" y1="579.66" x2="164.56" y2="579.78"/>
    <polyline class="st1" points="164.86 579.24 158.86 582.72 164.86 579.42 164.86 579.24"/>
    <polyline class="st1" points="158.86 582.72 158.86 582.9 164.86 579.42"/>
    <polyline class="st1" points="158.86 582.9 158.8 583.02 164.86 579.42"/>
    <polyline class="st1" points="158.8 583.08 164.74 579.66 158.8 583.02 158.8 583.08"/>
    <polyline class="st1" points="164.74 579.66 164.8 579.54 158.8 583.02"/>
    <line class="st1" x1="164.8" y1="579.54" x2="164.86" y2="579.42"/>
    <polyline class="st1" points="158.8 583.08 158.74 583.14 164.74 579.66"/>
    <polyline class="st1" points="158.74 583.14 164.56 579.78 164.74 579.66"/>
    <line class="st1" x1="150.34" y1="582.72" x2="150.34" y2="582.18"/>
    <line class="st1" x1="158.86" y1="582.72" x2="158.86" y2="582.18"/>
    <line class="st1" x1="164.86" y1="579.24" x2="164.86" y2="578.7"/>
    <line class="st1" x1="150.34" y1="582.72" x2="144.28" y2="579.24"/>
    <polyline class="st1" points="144.4 579.6 144.46 579.66 144.46 579.66"/>
    <line class="st1" x1="158.86" y1="582.72" x2="157.9" y2="582.72"/>
    <line class="st1" x1="151.24" y1="582.72" x2="150.34" y2="582.72"/>
    <line class="st1" x1="-440.62" y1="-66.7" x2="-440.62" y2="-66.7"/>
    <polyline class="st1" points="158.68 583.14 158.62 583.14 158.62 583.14"/>
    <line class="st1" x1="164.86" y1="579.24" x2="158.86" y2="582.72"/>
    <line class="st1" x1="144.28" y1="579.24" x2="144.28" y2="578.7"/>
    <polyline class="st1" points="781.78 473.28 781.78 471.48 781.66 473.22 781.78 473.28"/>
    <polyline class="st1" points="781.78 471.48 781.54 471.3 781.66 473.22"/>
    <polyline class="st1" points="781.54 471.3 781.48 473.04 781.66 473.22"/>
    <polyline class="st1" points="781.54 471.3 781.48 471.06 781.48 473.04"/>
    <polyline class="st1" points="781.48 471.06 781.48 472.8 781.48 473.04"/>
    <line class="st1" x1="781.48" y1="471.06" x2="781.54" y2="470.82"/>
    <line class="st1" x1="781.54" y1="470.82" x2="781.66" y2="470.7"/>
    <line class="st1" x1="812.38" y1="470.7" x2="812.5" y2="470.82"/>
    <polyline class="st1" points="812.5 470.82 812.56 471.06 812.56 472.86"/>
    <polyline class="st1" points="812.56 471.06 812.5 473.1 812.56 472.86"/>
    <polyline class="st1" points="812.56 471.06 812.5 471.3 812.5 473.1"/>
    <polyline class="st1" points="812.5 471.3 812.32 473.28 812.5 473.1"/>
    <polyline class="st1" points="812.5 471.3 812.26 471.48 812.32 473.28"/>
    <polyline class="st1" points="812.26 471.48 812.26 473.28 812.32 473.28"/>
    <polyline class="st1" points="797.74 481.68 797.74 479.88 797.5 481.8 797.74 481.68"/>
    <polyline class="st1" points="797.74 479.88 797.38 479.99 797.5 481.8"/>
    <polyline class="st1" points="797.38 479.99 797.14 481.86 797.5 481.8"/>
    <polyline class="st1" points="797.38 479.99 797.02 480.06 797.14 481.86"/>
    <polyline class="st1" points="797.02 480.06 796.78 481.86 797.14 481.86"/>
    <polyline class="st1" points="797.02 480.06 796.66 479.99 796.78 481.86"/>
    <polyline class="st1" points="796.66 479.99 796.48 481.8 796.78 481.86"/>
    <polyline class="st1" points="796.66 479.99 796.3 479.88 796.48 481.8"/>
    <polyline class="st1" points="796.3 479.88 796.3 481.68 796.48 481.8"/>
    <line class="st1" x1="781.84" y1="473.4" x2="781.78" y2="473.4"/>
    <line class="st1" x1="781.78" y1="473.4" x2="781.66" y2="473.34"/>
    <line class="st1" x1="781.66" y1="473.34" x2="781.54" y2="473.16"/>
    <polyline class="st1" points="781.78 473.4 781.78 473.34 781.66 473.34"/>
    <polyline class="st1" points="781.78 473.34 781.66 473.28 781.66 473.34"/>
    <line class="st1" x1="781.66" y1="473.28" x2="781.54" y2="473.16"/>
    <polyline class="st1" points="781.66 473.28 781.48 473.04 781.54 473.16"/>
    <polyline class="st1" points="781.78 473.34 781.78 473.28 781.66 473.28"/>
    <polyline class="st1" points="781.78 473.28 781.66 473.22 781.66 473.28"/>
    <line class="st1" x1="781.66" y1="473.22" x2="781.48" y2="473.04"/>
    <polyline class="st1" points="781.66 473.22 781.48 473.04 781.48 473.04"/>
    <line class="st1" x1="781.48" y1="473.04" x2="781.48" y2="472.8"/>
    <polyline class="st1" points="812.26 473.28 812.26 473.34 812.32 473.28 812.26 473.28"/>
    <polyline class="st1" points="812.26 473.34 812.32 473.28 812.32 473.28"/>
    <polyline class="st1" points="812.32 473.28 812.5 473.1 812.32 473.28"/>
    <polyline class="st1" points="812.32 473.28 812.5 473.1 812.5 473.1"/>
    <polyline class="st1" points="812.5 473.1 812.56 472.86 812.5 473.1"/>
    <polyline class="st1" points="812.5 473.1 812.56 472.92 812.56 472.86"/>
    <polyline class="st1" points="812.26 473.34 812.26 473.4 812.32 473.28"/>
    <polyline class="st1" points="812.26 473.4 812.32 473.34 812.32 473.28"/>
    <line class="st1" x1="812.32" y1="473.34" x2="812.5" y2="473.1"/>
    <polyline class="st1" points="812.32 473.34 812.5 473.16 812.5 473.1"/>
    <polyline class="st1" points="812.26 473.4 812.2 473.4 812.32 473.34"/>
    <polyline class="st1" points="812.2 473.4 812.26 473.4 812.32 473.34"/>
    <polyline class="st1" points="812.26 473.28 797.74 481.68 812.26 473.34 812.26 473.28"/>
    <polyline class="st1" points="797.74 481.68 797.74 481.74 812.26 473.34"/>
    <polyline class="st1" points="797.74 481.74 797.68 481.8 812.26 473.34"/>
    <polyline class="st1" points="797.68 481.8 812.26 473.4 812.26 473.34"/>
    <polyline class="st1" points="797.68 481.8 797.68 481.86 812.26 473.4"/>
    <polyline class="st1" points="797.68 481.86 812.2 473.4 812.26 473.4"/>
    <line class="st1" x1="797.68" y1="481.86" x2="797.44" y2="481.92"/>
    <line class="st1" x1="797.44" y1="481.92" x2="797.14" y2="481.98"/>
    <line class="st1" x1="797.14" y1="481.98" x2="796.84" y2="481.98"/>
    <line class="st1" x1="796.84" y1="481.98" x2="796.48" y2="481.92"/>
    <line class="st1" x1="796.48" y1="481.92" x2="796.36" y2="481.86"/>
    <polyline class="st1" points="797.68 481.86 797.68 481.8 797.44 481.92"/>
    <polyline class="st1" points="797.68 481.8 797.5 481.92 797.44 481.92"/>
    <line class="st1" x1="797.5" y1="481.92" x2="797.14" y2="481.98"/>
    <polyline class="st1" points="797.5 481.92 797.14 481.98 797.14 481.98"/>
    <line class="st1" x1="797.14" y1="481.98" x2="796.84" y2="481.98"/>
    <polyline class="st1" points="797.14 481.98 796.78 481.92 796.84 481.98"/>
    <line class="st1" x1="796.78" y1="481.92" x2="796.48" y2="481.92"/>
    <polyline class="st1" points="796.78 481.92 796.48 481.86 796.48 481.92"/>
    <line class="st1" x1="796.48" y1="481.86" x2="796.36" y2="481.86"/>
    <polyline class="st1" points="796.48 481.86 796.36 481.8 796.36 481.86"/>
    <polyline class="st1" points="797.68 481.8 797.74 481.74 797.5 481.92"/>
    <polyline class="st1" points="797.74 481.74 797.5 481.86 797.5 481.92"/>
    <line class="st1" x1="797.5" y1="481.86" x2="797.14" y2="481.98"/>
    <polyline class="st1" points="797.5 481.86 797.14 481.92 797.14 481.98"/>
    <line class="st1" x1="797.14" y1="481.92" x2="796.78" y2="481.92"/>
    <polyline class="st1" points="797.14 481.92 796.78 481.92 796.78 481.92"/>
    <line class="st1" x1="796.78" y1="481.92" x2="796.48" y2="481.86"/>
    <polyline class="st1" points="796.78 481.92 796.48 481.8 796.48 481.86"/>
    <line class="st1" x1="796.48" y1="481.8" x2="796.36" y2="481.8"/>
    <polyline class="st1" points="796.48 481.8 796.3 481.74 796.36 481.8"/>
    <polyline class="st1" points="797.74 481.74 797.74 481.68 797.5 481.86"/>
    <polyline class="st1" points="797.74 481.68 797.5 481.8 797.5 481.86"/>
    <line class="st1" x1="797.5" y1="481.8" x2="797.14" y2="481.92"/>
    <polyline class="st1" points="797.5 481.8 797.14 481.86 797.14 481.92"/>
    <line class="st1" x1="797.14" y1="481.86" x2="796.78" y2="481.92"/>
    <polyline class="st1" points="797.14 481.86 796.78 481.86 796.78 481.92"/>
    <line class="st1" x1="796.78" y1="481.86" x2="796.48" y2="481.8"/>
    <polyline class="st1" points="796.78 481.86 796.48 481.8 796.48 481.8"/>
    <line class="st1" x1="796.48" y1="481.8" x2="796.3" y2="481.74"/>
    <polyline class="st1" points="796.48 481.8 796.3 481.68 796.3 481.74"/>
    <line class="st1" x1="796.36" y1="481.86" x2="781.84" y2="473.4"/>
    <polyline class="st1" points="796.36 481.86 796.36 481.8 781.84 473.4"/>
    <polyline class="st1" points="796.36 481.8 781.78 473.4 781.84 473.4"/>
    <polyline class="st1" points="796.36 481.8 796.3 481.74 781.78 473.4"/>
    <polyline class="st1" points="796.3 481.74 781.78 473.34 781.78 473.4"/>
    <polyline class="st1" points="796.3 481.74 781.78 473.28 781.78 473.34"/>
    <polyline class="st1" points="796.3 481.74 796.3 481.68 781.78 473.28"/>
    <line class="st1" x1="781.78" y1="473.28" x2="781.78" y2="471.48"/>
    <line class="st1" x1="781.78" y1="471.48" x2="781.78" y2="471.3"/>
    <line class="st1" x1="812.26" y1="471.3" x2="812.26" y2="471.48"/>
    <line class="st1" x1="812.26" y1="471.48" x2="812.26" y2="473.28"/>
    <line class="st1" x1="797.74" y1="481.68" x2="797.74" y2="479.88"/>
    <line class="st1" x1="797.74" y1="479.88" x2="797.44" y2="479.88"/>
    <line class="st1" x1="796.6" y1="479.88" x2="796.3" y2="479.88"/>
    <line class="st1" x1="796.3" y1="479.88" x2="796.3" y2="481.68"/>
    <line class="st1" x1="796.3" y1="479.88" x2="781.78" y2="471.48"/>
    <line class="st1" x1="812.26" y1="471.48" x2="797.74" y2="479.88"/>
    <line class="st1" x1="812.26" y1="473.28" x2="797.74" y2="481.68"/>
    <line class="st1" x1="796.3" y1="481.68" x2="781.78" y2="473.28"/>
    <polyline class="st1" points="807.28 476.82 801.28 480.3 807.28 476.93 807.28 476.82"/>
    <polyline class="st1" points="801.28 480.3 801.28 480.42 807.28 476.93"/>
    <polyline class="st1" points="801.28 480.42 801.22 480.54 807.28 476.93"/>
    <polyline class="st1" points="801.22 480.66 807.16 477.18 801.22 480.54 801.22 480.66"/>
    <polyline class="st1" points="807.16 477.18 807.22 477.06 801.22 480.54"/>
    <line class="st1" x1="807.22" y1="477.06" x2="807.28" y2="476.93"/>
    <polyline class="st1" points="801.22 480.66 801.16 480.66 807.16 477.18"/>
    <polyline class="st1" points="801.16 480.66 807.04 477.3 807.16 477.18"/>
    <line class="st1" x1="-440.62" y1="-66.7" x2="-440.62" y2="-66.7"/>
    <line class="st1" x1="807.16" y1="477.18" x2="807.04" y2="477.3"/>
    <line class="st1" x1="807.22" y1="477.06" x2="807.16" y2="477.18"/>
    <line class="st1" x1="807.28" y1="476.82" x2="807.28" y2="476.93"/>
    <line class="st1" x1="807.28" y1="476.93" x2="807.22" y2="477.06"/>
    <line class="st1" x1="801.28" y1="480.3" x2="800.38" y2="480.3"/>
    <polyline class="st1" points="793.66 480.3 792.76 480.3 793.72 480.3"/>
    <polyline class="st1" points="800.14 480.42 801.28 480.42 801.28 480.3"/>
    <polyline class="st1" points="792.76 480.3 792.76 480.42 793.96 480.42"/>
    <line class="st1" x1="800.08" y1="480.42" x2="801.28" y2="480.42"/>
    <polyline class="st1" points="792.76 480.42 792.76 480.54 794.14 480.54"/>
    <line class="st1" x1="800.08" y1="480.42" x2="801.28" y2="480.42"/>
    <line class="st1" x1="792.82" y1="480.66" x2="794.32" y2="480.66"/>
    <polyline class="st1" points="799.72 480.66 801.22 480.66 799.78 480.6"/>
    <polyline class="st1" points="794.2 480.54 792.76 480.54 792.82 480.66"/>
    <polyline class="st1" points="801.22 480.66 801.22 480.54 799.9 480.54"/>
    <line class="st1" x1="794.14" y1="480.54" x2="792.76" y2="480.54"/>
    <line class="st1" x1="801.22" y1="480.54" x2="801.28" y2="480.42"/>
    <polyline class="st1" points="792.82 480.66 792.88 480.66 794.38 480.66"/>
    <line class="st1" x1="799.72" y1="480.66" x2="801.22" y2="480.66"/>
    <line class="st1" x1="792.88" y1="480.66" x2="794.38" y2="480.66"/>
    <polyline class="st1" points="799.66 480.66 801.16 480.66 801.22 480.66"/>
    <polyline class="st1" points="792.76 480.3 786.7 476.82 792.76 480.42 792.76 480.3"/>
    <polyline class="st1" points="786.7 476.82 786.76 476.93 792.76 480.42"/>
    <polyline class="st1" points="786.76 476.93 786.82 477.06 792.76 480.42"/>
    <polyline class="st1" points="786.88 477.18 792.82 480.66 786.82 477.06 786.88 477.18"/>
    <polyline class="st1" points="792.82 480.66 792.76 480.54 786.82 477.06"/>
    <line class="st1" x1="792.76" y1="480.54" x2="792.76" y2="480.42"/>
    <polyline class="st1" points="786.88 477.18 787 477.3 792.82 480.66"/>
    <polyline class="st1" points="787 477.3 792.88 480.66 792.82 480.66"/>
    <line class="st1" x1="786.76" y1="476.93" x2="786.7" y2="476.82"/>
    <line class="st1" x1="786.88" y1="477.18" x2="786.82" y2="477.06"/>
    <line class="st1" x1="786.82" y1="477.06" x2="786.76" y2="476.93"/>
    <line class="st1" x1="787" y1="477.3" x2="786.88" y2="477.18"/>
    <line class="st1" x1="807.28" y1="476.82" x2="801.28" y2="480.3"/>
    <line class="st1" x1="-440.62" y1="-66.7" x2="-440.62" y2="-66.7"/>
    <line class="st1" x1="801.28" y1="480.3" x2="800.38" y2="480.3"/>
    <line class="st1" x1="793.66" y1="480.3" x2="792.76" y2="480.3"/>
    <line class="st1" x1="792.76" y1="480.3" x2="786.7" y2="476.82"/>
    <line class="st1" x1="786.7" y1="476.82" x2="786.7" y2="476.28"/>
    <line class="st1" x1="792.76" y1="480.3" x2="792.76" y2="479.76"/>
    <line class="st1" x1="801.28" y1="480.3" x2="801.28" y2="479.76"/>
    <line class="st1" x1="807.28" y1="476.82" x2="807.28" y2="476.28"/>
    <polyline class="st1" points="386.38 718.38 386.5 718.43 386.38 716.52 386.38 718.38"/>
    <polyline class="st1" points="386.5 718.43 386.68 716.7 386.38 716.52"/>
    <polyline class="st1" points="386.5 718.43 386.68 718.49 386.68 716.7"/>
    <polyline class="st1" points="386.68 718.49 386.86 718.55 386.68 716.7"/>
    <polyline class="st1" points="386.86 718.55 387.1 716.7 386.68 716.7"/>
    <polyline class="st1" points="386.86 718.55 387.04 718.55 387.1 716.7"/>
    <polyline class="st1" points="387.04 718.55 387.22 718.55 387.1 716.7"/>
    <polyline class="st1" points="387.22 718.55 387.46 716.7 387.1 716.7"/>
    <polyline class="st1" points="387.22 718.55 387.4 718.55 387.46 716.7"/>
    <polyline class="st1" points="387.4 718.55 387.58 718.49 387.46 716.7"/>
    <polyline class="st1" points="387.58 718.49 387.76 716.52 387.46 716.7"/>
    <polyline class="st1" points="387.58 718.49 387.7 718.43 387.76 716.52"/>
    <polyline class="st1" points="387.7 718.43 387.76 718.38 387.76 716.52"/>
    <line class="st1" x1="371.62" y1="707.52" x2="371.74" y2="707.4"/>
    <line class="st1" x1="371.5" y1="707.76" x2="371.62" y2="707.52"/>
    <line class="st1" x1="371.5" y1="709.61" x2="371.5" y2="707.76"/>
    <polyline class="st1" points="371.5 709.61 371.62 707.93 371.5 707.76"/>
    <polyline class="st1" points="371.5 709.61 371.62 709.8 371.62 707.93"/>
    <polyline class="st1" points="371.62 709.8 371.8 709.98 371.62 707.93"/>
    <polyline class="st1" points="371.8 709.98 371.8 708.11 371.62 707.93"/>
    <polyline class="st1" points="402.34 709.98 402.52 709.86 402.34 708.11 402.34 709.98"/>
    <polyline class="st1" points="402.52 709.86 402.58 707.93 402.34 708.11"/>
    <polyline class="st1" points="402.52 709.86 402.64 709.68 402.58 707.93"/>
    <polyline class="st1" points="402.64 709.68 402.64 707.76 402.58 707.93"/>
    <line class="st1" x1="402.58" y1="707.52" x2="402.64" y2="707.76"/>
    <line class="st1" x1="402.4" y1="707.4" x2="402.58" y2="707.52"/>
    <line class="st1" x1="386.44" y1="718.49" x2="371.86" y2="710.1"/>
    <polyline class="st1" points="386.44 718.49 386.38 718.49 371.86 710.1"/>
    <polyline class="st1" points="386.38 718.49 371.86 710.1 371.86 710.1"/>
    <polyline class="st1" points="386.38 718.49 386.38 718.43 371.86 710.1"/>
    <polyline class="st1" points="386.38 718.43 371.8 710.04 371.86 710.1"/>
    <polyline class="st1" points="386.38 718.43 371.8 709.98 371.8 710.04"/>
    <polyline class="st1" points="386.38 718.43 386.38 718.38 371.8 709.98"/>
    <polyline class="st1" points="402.34 709.98 402.34 710.04 402.52 709.86 402.34 709.98"/>
    <polyline class="st1" points="402.34 710.04 402.52 709.92 402.52 709.86"/>
    <polyline class="st1" points="402.52 709.92 402.64 709.68 402.52 709.86"/>
    <polyline class="st1" points="402.52 709.92 402.64 709.68 402.64 709.68"/>
    <polyline class="st1" points="402.34 710.04 402.28 710.1 402.52 709.92"/>
    <polyline class="st1" points="402.28 710.1 402.46 709.98 402.52 709.92"/>
    <line class="st1" x1="402.46" y1="709.98" x2="402.64" y2="709.68"/>
    <polyline class="st1" points="402.46 709.98 402.58 709.74 402.64 709.68"/>
    <line class="st1" x1="-440.62" y1="-66.7" x2="-440.62" y2="-66.7"/>
    <line class="st1" x1="387.7" y1="718.49" x2="387.64" y2="718.55"/>
    <line class="st1" x1="387.64" y1="718.55" x2="387.34" y2="718.61"/>
    <line class="st1" x1="387.34" y1="718.61" x2="387.04" y2="718.68"/>
    <line class="st1" x1="387.04" y1="718.68" x2="386.68" y2="718.61"/>
    <line class="st1" x1="386.68" y1="718.61" x2="386.44" y2="718.49"/>
    <polyline class="st1" points="387.7 718.49 387.76 718.49 387.64 718.55"/>
    <polyline class="st1" points="387.76 718.49 387.7 718.49 387.64 718.55"/>
    <line class="st1" x1="387.7" y1="718.49" x2="387.34" y2="718.61"/>
    <polyline class="st1" points="387.7 718.49 387.4 718.61 387.34 718.61"/>
    <line class="st1" x1="387.4" y1="718.61" x2="387.04" y2="718.68"/>
    <polyline class="st1" points="387.4 718.61 387.04 718.61 387.04 718.68"/>
    <line class="st1" x1="387.04" y1="718.61" x2="386.68" y2="718.61"/>
    <polyline class="st1" points="387.04 718.61 386.68 718.61 386.68 718.61"/>
    <line class="st1" x1="386.68" y1="718.61" x2="386.44" y2="718.49"/>
    <polyline class="st1" points="386.68 718.61 386.38 718.49 386.44 718.49"/>
    <polyline class="st1" points="387.76 718.49 387.76 718.43 387.7 718.49"/>
    <polyline class="st1" points="387.76 718.43 387.7 718.43 387.7 718.49"/>
    <line class="st1" x1="387.7" y1="718.43" x2="387.4" y2="718.61"/>
    <polyline class="st1" points="387.7 718.43 387.4 718.55 387.4 718.61"/>
    <line class="st1" x1="387.4" y1="718.55" x2="387.04" y2="718.61"/>
    <polyline class="st1" points="387.4 718.55 387.04 718.61 387.04 718.61"/>
    <line class="st1" x1="387.04" y1="718.61" x2="386.68" y2="718.61"/>
    <polyline class="st1" points="387.04 718.61 386.68 718.55 386.68 718.61"/>
    <line class="st1" x1="386.68" y1="718.55" x2="386.38" y2="718.49"/>
    <polyline class="st1" points="386.68 718.55 386.38 718.43 386.38 718.49"/>
    <polyline class="st1" points="387.76 718.43 387.76 718.38 387.7 718.43"/>
    <polyline class="st1" points="387.76 718.38 387.7 718.43 387.7 718.43"/>
    <polyline class="st1" points="387.7 718.43 387.58 718.49 387.7 718.43"/>
    <line class="st1" x1="387.58" y1="718.49" x2="387.4" y2="718.55"/>
    <polyline class="st1" points="387.58 718.49 387.4 718.55 387.4 718.55"/>
    <polyline class="st1" points="387.4 718.55 387.22 718.55 387.4 718.55"/>
    <line class="st1" x1="387.22" y1="718.55" x2="387.04" y2="718.61"/>
    <polyline class="st1" points="387.22 718.55 387.04 718.55 387.04 718.61"/>
    <polyline class="st1" points="387.04 718.55 386.86 718.55 387.04 718.61"/>
    <line class="st1" x1="386.86" y1="718.55" x2="386.68" y2="718.55"/>
    <polyline class="st1" points="386.86 718.55 386.68 718.49 386.68 718.55"/>
    <polyline class="st1" points="386.68 718.49 386.5 718.43 386.68 718.55"/>
    <polyline class="st1" points="386.38 718.38 386.38 718.43 386.5 718.43 386.38 718.38"/>
    <line class="st1" x1="402.28" y1="710.1" x2="387.7" y2="718.49"/>
    <line class="st1" x1="402.28" y1="710.1" x2="387.7" y2="718.49"/>
    <polyline class="st1" points="402.28 710.1 387.76 718.49 387.7 718.49"/>
    <polyline class="st1" points="402.28 710.1 402.34 710.04 387.76 718.49"/>
    <polyline class="st1" points="402.34 710.04 387.76 718.43 387.76 718.49"/>
    <polyline class="st1" points="402.34 710.04 387.76 718.38 387.76 718.43"/>
    <polyline class="st1" points="402.34 710.04 402.34 709.98 387.76 718.38"/>
    <line class="st1" x1="-440.62" y1="-66.7" x2="-440.62" y2="-66.7"/>
    <line class="st1" x1="371.86" y1="710.1" x2="371.62" y2="709.92"/>
    <polyline class="st1" points="371.86 710.1 371.8 710.04 371.62 709.92"/>
    <polyline class="st1" points="371.8 710.04 371.62 709.86 371.62 709.92"/>
    <line class="st1" x1="371.62" y1="709.86" x2="371.5" y2="709.61"/>
    <polyline class="st1" points="371.8 710.04 371.8 709.98 371.62 709.86"/>
    <polyline class="st1" points="371.8 709.98 371.62 709.8 371.62 709.86"/>
    <line class="st1" x1="371.62" y1="709.8" x2="371.5" y2="709.61"/>
    <polyline class="st1" points="371.62 709.8 371.5 709.61 371.5 709.61"/>
    <line class="st1" x1="387.76" y1="716.52" x2="387.76" y2="718.38"/>
    <line class="st1" x1="387.76" y1="718.38" x2="402.34" y2="709.98"/>
    <line class="st1" x1="402.34" y1="709.98" x2="402.34" y2="708.11"/>
    <line class="st1" x1="387.76" y1="716.52" x2="402.34" y2="708.11"/>
    <line class="st1" x1="402.34" y1="708.11" x2="402.34" y2="707.99"/>
    <line class="st1" x1="371.8" y1="707.99" x2="371.8" y2="708.11"/>
    <line class="st1" x1="371.8" y1="708.11" x2="386.38" y2="716.52"/>
    <line class="st1" x1="386.38" y1="716.52" x2="386.62" y2="716.52"/>
    <line class="st1" x1="387.52" y1="716.52" x2="387.76" y2="716.52"/>
    <line class="st1" x1="371.8" y1="708.11" x2="371.8" y2="709.98"/>
    <line class="st1" x1="371.8" y1="709.98" x2="386.38" y2="718.38"/>
    <line class="st1" x1="386.38" y1="718.38" x2="386.38" y2="716.52"/>
    <line class="st1" x1="397.06" y1="713.99" x2="391.24" y2="717.36"/>
    <polyline class="st1" points="397.06 713.99 397.18 713.88 391.24 717.36"/>
    <polyline class="st1" points="397.18 713.88 391.24 717.3 391.24 717.36"/>
    <polyline class="st1" points="397.18 713.88 391.3 717.24 391.24 717.3"/>
    <polyline class="st1" points="397.18 713.88 397.3 713.76 391.3 717.24"/>
    <polyline class="st1" points="397.3 713.76 397.36 713.64 391.3 717.24"/>
    <polyline class="st1" points="397.36 713.46 391.36 716.93 397.36 713.64 397.36 713.46"/>
    <polyline class="st1" points="391.36 716.93 391.3 717.11 397.36 713.64"/>
    <line class="st1" x1="391.3" y1="717.11" x2="391.3" y2="717.24"/>
    <line class="st1" x1="391.36" y1="716.93" x2="390.4" y2="716.93"/>
    <polyline class="st1" points="383.74 716.93 382.78 716.93 383.74 716.99"/>
    <polyline class="st1" points="390.16 717.05 391.3 717.11 391.36 716.93"/>
    <polyline class="st1" points="382.78 716.93 382.84 717.11 383.98 717.11"/>
    <line class="st1" x1="390.16" y1="717.11" x2="391.3" y2="717.11"/>
    <polyline class="st1" points="382.84 717.11 382.84 717.24 384.16 717.18"/>
    <line class="st1" x1="390.1" y1="717.11" x2="391.3" y2="717.11"/>
    <line class="st1" x1="382.9" y1="717.3" x2="384.34" y2="717.3"/>
    <polyline class="st1" points="389.8 717.3 391.24 717.3 389.8 717.3"/>
    <polyline class="st1" points="384.22 717.24 382.84 717.24 382.9 717.3"/>
    <polyline class="st1" points="391.24 717.3 391.3 717.24 389.92 717.24"/>
    <line class="st1" x1="384.22" y1="717.24" x2="382.84" y2="717.24"/>
    <line class="st1" x1="391.3" y1="717.24" x2="391.3" y2="717.11"/>
    <polyline class="st1" points="382.9 717.3 382.96 717.36 384.4 717.36"/>
    <line class="st1" x1="389.8" y1="717.3" x2="391.24" y2="717.3"/>
    <line class="st1" x1="382.96" y1="717.36" x2="384.46" y2="717.36"/>
    <polyline class="st1" points="389.68 717.36 391.24 717.36 391.24 717.3"/>
    <line class="st1" x1="397.18" y1="713.88" x2="397.06" y2="713.99"/>
    <line class="st1" x1="397.3" y1="713.76" x2="397.18" y2="713.88"/>
    <line class="st1" x1="397.36" y1="713.46" x2="397.36" y2="713.64"/>
    <line class="st1" x1="397.36" y1="713.64" x2="397.3" y2="713.76"/>
    <polyline class="st1" points="382.78 716.93 376.78 713.46 382.84 717.11 382.78 716.93"/>
    <polyline class="st1" points="376.78 713.46 376.78 713.64 382.84 717.11"/>
    <polyline class="st1" points="376.78 713.64 376.84 713.76 382.84 717.11"/>
    <polyline class="st1" points="376.96 713.88 382.9 717.3 376.84 713.76 376.96 713.88"/>
    <polyline class="st1" points="382.9 717.3 382.84 717.24 376.84 713.76"/>
    <line class="st1" x1="382.84" y1="717.24" x2="382.84" y2="717.11"/>
    <polyline class="st1" points="376.96 713.88 377.08 713.99 382.9 717.3"/>
    <polyline class="st1" points="377.08 713.99 382.96 717.36 382.9 717.3"/>
    <line class="st1" x1="376.78" y1="713.64" x2="376.78" y2="713.46"/>
    <line class="st1" x1="376.96" y1="713.88" x2="376.84" y2="713.76"/>
    <line class="st1" x1="376.84" y1="713.76" x2="376.78" y2="713.64"/>
    <line class="st1" x1="377.08" y1="713.99" x2="376.96" y2="713.88"/>
    <line class="st1" x1="376.78" y1="713.46" x2="376.78" y2="712.92"/>
    <line class="st1" x1="-440.62" y1="-66.7" x2="-440.62" y2="-66.7"/>
    <line class="st1" x1="-440.62" y1="-66.7" x2="-440.62" y2="-66.7"/>
    <line class="st1" x1="-440.62" y1="-66.7" x2="-440.62" y2="-66.7"/>
    <line class="st1" x1="-440.62" y1="-66.7" x2="-440.62" y2="-66.7"/>
    <line class="st1" x1="391.36" y1="716.93" x2="391.36" y2="716.4"/>
    <line class="st1" x1="382.78" y1="716.93" x2="383.74" y2="716.93"/>
    <line class="st1" x1="390.4" y1="716.93" x2="391.36" y2="716.93"/>
    <line class="st1" x1="382.78" y1="716.93" x2="382.78" y2="716.4"/>
    <line class="st1" x1="376.78" y1="713.46" x2="382.78" y2="716.93"/>
    <line class="st1" x1="397.36" y1="713.46" x2="397.36" y2="712.92"/>
    <line class="st1" x1="391.36" y1="716.93" x2="397.36" y2="713.46"/>
  </g>
  <g id="Layer_2">
    <line class="st2" x1="564.52" y1="28.44" x2="812.98" y2="171.84"/>
    <polyline class="st2" points="564.52 28.44 138.64 274.32 138.64 284.58 387.1 428.04"/>
    <line class="st2" x1="812.98" y1="171.84" x2="387.1" y2="417.78"/>
    <line class="st2" x1="387.1" y1="428.04" x2="812.98" y2="182.1"/>
    <polyline class="st2" points="387.1 428.04 387.1 417.78 138.64 274.32"/>
    <line class="st2" x1="812.98" y1="182.1" x2="812.98" y2="171.84"/>
  </g>
  <g id="Layer_4">
    <line class="st0" x1="812.98" y1="527.22" x2="387.1" y2="773.16"/>
    <line class="st0" x1="387.1" y1="773.16" x2="138.64" y2="629.7"/>
    <line class="st0" x1="90.65" y1="574.83" x2="90.65" y2="274.32"/>
    <path d="M41.2,452.8v-63.7h7.7v25.77c1.87-1.99,3.95-3.58,6.23-4.78s4.9-1.8,7.87-1.8c2.39,0,4.5.4,6.33,1.19s3.36,1.92,4.58,3.37c1.23,1.46,2.15,3.21,2.79,5.25.63,2.05.95,4.31.95,6.79v27.89h-7.7v-27.89c0-3.32-.76-5.89-2.27-7.72-1.51-1.83-3.83-2.75-6.94-2.75-2.28,0-4.4.55-6.38,1.64-1.98,1.1-3.8,2.58-5.47,4.45v32.26h-7.7v.03Z"/>
    <path d="M236.41,768.16c-1.1,0-1.79-.53-2.08-1.6l-.69-5.32c-1.87,2.28-4.01,4.1-6.42,5.47s-5.17,2.05-8.28,2.05c-2.51,0-4.79-.48-6.83-1.45-2.05-.97-3.79-2.39-5.23-4.26s-2.55-4.21-3.33-7-1.17-6.01-1.17-9.64c0-3.23.43-6.23,1.3-9.02.86-2.78,2.11-5.2,3.74-7.24,1.63-2.05,3.61-3.65,5.95-4.82s4.99-1.75,7.96-1.75c2.68,0,4.97.45,6.88,1.36,1.9.91,3.6,2.18,5.1,3.83v-24.3h7.7v63.7h-4.6ZM221.49,762.53c2.51,0,4.71-.58,6.59-1.73,1.89-1.15,3.62-2.78,5.21-4.89v-21.19c-1.41-1.9-2.96-3.24-4.65-4s-3.55-1.15-5.6-1.15c-4.09,0-7.24,1.46-9.43,4.37-2.19,2.91-3.29,7.06-3.29,12.45,0,2.85.24,5.3.74,7.33.49,2.03,1.21,3.7,2.16,5.02.95,1.31,2.12,2.27,3.5,2.88s2.97.91,4.76.91h0Z"/>
    <path d="M611.2,652.19h6.05c.63,0,1.15.16,1.56.48.4.32.68.69.82,1.12l8.39,28.19c.23,1.04.45,2.04.65,3.01.2.97.37,1.94.52,2.92.23-.98.49-1.95.78-2.92s.59-1.97.91-3.01l9.25-28.37c.14-.43.4-.79.76-1.08.36-.29.81-.43,1.36-.43h3.33c.58,0,1.05.14,1.43.43.37.29.63.65.78,1.08l9.04,28.37c.32,1.01.6,2,.84,2.98s.48,1.95.71,2.9c.14-.95.33-1.95.56-2.98.23-1.04.48-2,.74-2.9l8.56-28.19c.14-.46.42-.84.82-1.15.4-.3.88-.45,1.43-.45h5.79l-14.18,43.8h-6.1c-.75,0-1.27-.49-1.56-1.47l-9.69-29.71c-.23-.66-.42-1.33-.56-2.01s-.29-1.35-.43-2.01c-.15.66-.29,1.34-.43,2.03s-.33,1.37-.56,2.03l-9.82,29.66c-.32.98-.91,1.47-1.77,1.47h-5.79l-14.18-43.8h-.01Z"/>
    <circle class="st3" cx="90.65" cy="274.32" r="4.4"/>
    <circle class="st3" cx="90.65" cy="575.88" r="4.4"/>
    <circle class="st3" cx="138.64" cy="629.7" r="4.4"/>
    <circle class="st3" cx="387.1" cy="773.16" r="4.4"/>
    <circle class="st3" cx="812.98" cy="527.22" r="4.4"/>
  </g>
</svg>