<?xml version="1.0" encoding="UTF-8"?>
<svg xmlns="http://www.w3.org/2000/svg" version="1.1" viewBox="0 0 841.89 841.89">
  <!-- Generator: Adobe Illustrator 30.3.0, SVG Export Plug-In . SVG Version: 2.1.3 Build 182)  -->
  <defs>
    <style>
      .st0 {
        stroke-linecap: round;
        stroke-linejoin: round;
      }

      .st0, .st1, .st2 {
        fill: none;
        stroke: #000;
      }

      .st1 {
        opacity: .5;
        stroke-width: .2px;
      }

      .st1, .st2 {
        stroke-linecap: square;
        stroke-miterlimit: 10;
      }

      .st3 {
        fill: #1d1d1b;
      }

      .st2 {
        stroke-width: .5px;
      }
    </style>
  </defs>
  <g id="Layer_3">
    <line class="st1" x1="377.02" y1="701.52" x2="377.02" y2="422.22"/>
    <polyline class="st1" points="377.02 701.52 377.08 702 377.02 422.22"/>
    <line class="st1" x1="377.08" y1="702" x2="377.14" y2="422.28"/>
    <polyline class="st1" points="377.08 702 377.44 703.02 377.14 422.28"/>
    <line class="st1" x1="377.44" y1="703.02" x2="377.44" y2="422.46"/>
    <polyline class="st1" points="385.96 717.78 386.44 718.44 385.96 427.38"/>
    <line class="st1" x1="385.96" y1="427.38" x2="385.96" y2="717.78"/>
    <line class="st1" x1="386.44" y1="718.44" x2="386.44" y2="427.68"/>
    <polyline class="st1" points="386.44 718.44 387.04 718.92 386.44 427.68"/>
    <line class="st1" x1="387.04" y1="718.92" x2="387.04" y2="428.04"/>
    <polyline class="st1" points="387.04 718.92 387.34 719.04 387.04 428.04"/>
    <line class="st1" x1="387.34" y1="719.04" x2="387.58" y2="427.68"/>
    <polyline class="st1" points="387.34 719.04 387.58 719.1 387.58 427.68"/>
    <polyline class="st1" points="387.58 719.1 387.88 719.1 387.58 427.68"/>
    <line class="st1" x1="387.88" y1="719.1" x2="388.06" y2="427.38"/>
    <polyline class="st1" points="387.88 719.1 388.06 718.98 388.06 427.38"/>
    <polyline class="st1" points="403.72 709.98 403.9 709.8 403.72 418.38"/>
    <line class="st1" x1="403.72" y1="418.38" x2="403.72" y2="709.98"/>
    <line class="st1" x1="403.9" y1="709.8" x2="404.02" y2="418.2"/>
    <polyline class="st1" points="403.9 709.8 404.02 709.62 404.02 418.2"/>
    <polyline class="st1" points="404.02 709.62 404.14 709.32 404.02 418.2"/>
    <line class="st1" x1="404.14" y1="709.32" x2="404.14" y2="418.14"/>
    <polyline class="st1" points="404.14 709.32 404.14 709.02 404.14 418.14"/>
    <line class="st1" x1="377.44" y1="422.46" x2="377.44" y2="703.02"/>
    <line class="st1" x1="377.44" y1="703.02" x2="385.96" y2="717.78"/>
    <line class="st1" x1="385.96" y1="427.38" x2="385.96" y2="717.78"/>
    <line class="st1" x1="388.06" y1="427.38" x2="388.06" y2="718.98"/>
    <line class="st1" x1="388.06" y1="718.98" x2="403.72" y2="709.98"/>
    <line class="st1" x1="403.72" y1="418.38" x2="403.72" y2="709.98"/>
    <line class="st1" x1="779.74" y1="201.3" x2="781.6" y2="202.38"/>
    <line class="st1" x1="781.6" y1="202.32" x2="779.74" y2="201.24"/>
    <line class="st1" x1="779.44" y1="201.48" x2="781.6" y2="202.74"/>
    <line class="st1" x1="779.44" y1="201.48" x2="781.6" y2="202.74"/>
    <line class="st1" x1="779.32" y1="201.54" x2="781.6" y2="202.86"/>
    <line class="st1" x1="781.6" y1="202.32" x2="779.74" y2="201.24"/>
    <polyline class="st1" points="556.3 330.24 556.3 339.06 556.36 330.24"/>
    <polyline class="st1" points="556.3 339.06 557.02 338.7 557.02 329.88"/>
    <line class="st1" x1="557.02" y1="338.7" x2="557.02" y2="329.88"/>
    <polyline class="st1" points="557.02 338.7 557.38 338.46 557.38 329.64"/>
    <polyline class="st1" points="557.38 338.46 557.8 338.22 557.8 329.46"/>
    <line class="st1" x1="557.8" y1="338.22" x2="557.8" y2="329.4"/>
    <polyline class="st1" points="557.8 338.22 558.16 338.04 558.16 329.22"/>
    <line class="st1" x1="558.16" y1="338.04" x2="558.16" y2="329.22"/>
    <polyline class="st1" points="558.16 338.04 558.46 337.86 558.46 329.04"/>
    <polyline class="st1" points="574.06 328.86 574.3 328.68 574.3 319.86"/>
    <line class="st1" x1="574.06" y1="320.04" x2="574.06" y2="328.86"/>
    <line class="st1" x1="574.3" y1="328.68" x2="574.3" y2="319.86"/>
    <polyline class="st1" points="574.3 328.68 574.48 328.62 574.48 319.8"/>
    <line class="st1" x1="574.48" y1="328.62" x2="574.48" y2="319.8"/>
    <polyline class="st1" points="574.48 328.62 574.54 328.56 574.54 319.74"/>
    <line class="st1" x1="547.36" y1="344.22" x2="547.36" y2="335.46"/>
    <polyline class="st1" points="547.36 344.22 547.48 344.16 547.48 335.4"/>
    <line class="st1" x1="547.48" y1="344.16" x2="547.48" y2="335.4"/>
    <polyline class="st1" points="547.48 344.16 547.78 343.98 547.78 335.16"/>
    <line class="st1" x1="547.78" y1="343.98" x2="547.78" y2="335.16"/>
    <line class="st1" x1="558.46" y1="337.86" x2="574.06" y2="328.86"/>
    <line class="st1" x1="574.06" y1="328.86" x2="574.06" y2="320.04"/>
    <line class="st1" x1="558.46" y1="337.86" x2="558.46" y2="329.04"/>
    <line class="st1" x1="547.78" y1="343.98" x2="547.78" y2="335.16"/>
    <line class="st1" x1="547.78" y1="343.98" x2="556.3" y2="339.06"/>
    <line class="st1" x1="556.3" y1="339.06" x2="556.3" y2="330.24"/>
    <polyline class="st1" points="781.6 466.68 558.46 337.86 781.6 467.04"/>
    <polyline class="st1" points="558.46 337.86 558.16 338.04 781.6 467.04"/>
    <polyline class="st1" points="558.16 338.04 557.8 338.22 781.6 467.04"/>
    <line class="st1" x1="557.8" y1="338.22" x2="781.6" y2="467.46"/>
    <polyline class="st1" points="557.8 338.22 557.38 338.46 781.6 467.46"/>
    <line class="st1" x1="557.38" y1="338.46" x2="781.6" y2="467.94"/>
    <polyline class="st1" points="557.38 338.46 557.02 338.7 781.6 467.94"/>
    <polyline class="st1" points="557.02 338.7 781.66 468.42 781.6 467.94"/>
    <polyline class="st1" points="557.02 338.7 556.3 339.06 781.66 468.42"/>
    <polyline class="st1" points="556.3 339.06 782.08 469.38 781.66 468.42"/>
    <line class="st1" x1="574.54" y1="328.56" x2="781.6" y2="448.14"/>
    <polyline class="st1" points="574.54 328.56 574.48 328.62 781.6 448.14"/>
    <line class="st1" x1="574.48" y1="328.62" x2="781.6" y2="448.2"/>
    <polyline class="st1" points="574.48 328.62 574.3 328.68 781.6 448.2"/>
    <line class="st1" x1="574.3" y1="328.68" x2="781.6" y2="448.38"/>
    <line class="st1" x1="574.06" y1="328.86" x2="781.6" y2="448.68"/>
    <polyline class="st1" points="781.6 448.62 574.3 328.68 574.06 328.86"/>
    <line class="st1" x1="808.54" y1="476.22" x2="808.36" y2="476.4"/>
    <line class="st1" x1="808.72" y1="475.74" x2="808.66" y2="475.98"/>
    <line class="st1" x1="808.66" y1="475.98" x2="808.54" y2="476.22"/>
    <line class="st1" x1="808.78" y1="475.38" x2="808.72" y2="475.74"/>
    <polyline class="st1" points="547.78 343.98 547.48 344.16 790.6 484.14 547.78 343.98"/>
    <polyline class="st1" points="547.48 344.16 791.08 484.8 790.6 484.14"/>
    <polyline class="st1" points="547.48 344.16 547.36 344.22 791.08 484.8"/>
    <polyline class="st1" points="547.36 344.22 791.62 485.28 791.08 484.8"/>
    <line class="st1" x1="791.92" y1="485.4" x2="791.62" y2="485.28"/>
    <line class="st1" x1="792.22" y1="485.46" x2="791.92" y2="485.4"/>
    <line class="st1" x1="792.7" y1="485.4" x2="792.46" y2="485.46"/>
    <line class="st1" x1="792.46" y1="485.46" x2="792.22" y2="485.46"/>
    <line class="st1" x1="781.6" y1="466.68" x2="558.46" y2="337.86"/>
    <line class="st1" x1="781.6" y1="448.68" x2="574.06" y2="328.86"/>
    <line class="st1" x1="574.06" y1="328.86" x2="558.46" y2="337.86"/>
    <line class="st1" x1="808.36" y1="476.4" x2="792.7" y2="485.4"/>
    <line class="st1" x1="790.6" y1="484.14" x2="547.78" y2="343.98"/>
    <line class="st1" x1="782.08" y1="469.38" x2="556.3" y2="339.06"/>
    <line class="st1" x1="556.3" y1="339.06" x2="547.78" y2="343.98"/>
    <line class="st1" x1="790.6" y1="484.14" x2="782.08" y2="469.38"/>
    <line class="st1" x1="781.6" y1="467.94" x2="781.6" y2="200.22"/>
    <polyline class="st1" points="781.6 467.94 781.66 468.42 781.6 200.16"/>
    <line class="st1" x1="781.66" y1="468.42" x2="781.72" y2="200.1"/>
    <polyline class="st1" points="781.66 468.42 782.08 469.38 781.78 200.1"/>
    <line class="st1" x1="782.08" y1="469.38" x2="782.08" y2="199.92"/>
    <polyline class="st1" points="790.6 484.14 791.08 484.8 790.6 195"/>
    <line class="st1" x1="790.6" y1="195" x2="790.6" y2="484.14"/>
    <line class="st1" x1="791.08" y1="484.8" x2="791.08" y2="194.76"/>
    <polyline class="st1" points="791.08 484.8 791.62 485.28 791.08 194.76"/>
    <line class="st1" x1="791.62" y1="485.28" x2="791.62" y2="194.4"/>
    <polyline class="st1" points="791.62 485.28 791.92 485.4 791.68 194.4"/>
    <line class="st1" x1="791.92" y1="485.4" x2="792.22" y2="194.1"/>
    <polyline class="st1" points="791.92 485.4 792.22 485.46 792.22 194.1"/>
    <polyline class="st1" points="792.22 485.46 792.46 485.46 792.22 194.04"/>
    <line class="st1" x1="792.46" y1="485.46" x2="792.7" y2="193.8"/>
    <polyline class="st1" points="792.46 485.46 792.7 485.4 792.7 193.8"/>
    <polyline class="st1" points="808.36 476.4 808.54 476.22 808.36 184.8"/>
    <line class="st1" x1="808.36" y1="184.8" x2="808.36" y2="476.4"/>
    <line class="st1" x1="808.54" y1="476.22" x2="808.66" y2="184.56"/>
    <polyline class="st1" points="808.54 476.22 808.66 475.98 808.66 184.56"/>
    <polyline class="st1" points="808.66 475.98 808.72 475.74 808.66 184.56"/>
    <line class="st1" x1="808.72" y1="475.74" x2="808.78" y2="184.5"/>
    <polyline class="st1" points="808.72 475.74 808.78 475.38 808.78 184.5"/>
    <line class="st1" x1="782.08" y1="199.92" x2="782.08" y2="469.38"/>
    <line class="st1" x1="782.08" y1="469.38" x2="790.6" y2="484.14"/>
    <line class="st1" x1="790.6" y1="195" x2="790.6" y2="484.14"/>
    <line class="st1" x1="792.7" y1="193.8" x2="792.7" y2="485.4"/>
    <line class="st1" x1="792.7" y1="485.4" x2="808.36" y2="476.4"/>
    <line class="st1" x1="808.36" y1="184.8" x2="808.36" y2="476.4"/>
    <polyline class="st1" points="377.02 700.32 153.82 571.44 377.02 700.68"/>
    <polyline class="st1" points="153.82 571.44 153.52 571.62 377.02 700.68"/>
    <polyline class="st1" points="153.52 571.62 153.16 571.86 377.02 700.68"/>
    <line class="st1" x1="153.16" y1="571.86" x2="377.02" y2="701.1"/>
    <polyline class="st1" points="153.16 571.86 152.74 572.1 377.02 701.1"/>
    <line class="st1" x1="152.74" y1="572.1" x2="377.02" y2="701.52"/>
    <polyline class="st1" points="152.74 572.1 152.38 572.28 377.02 701.52"/>
    <polyline class="st1" points="152.38 572.28 377.08 702 377.02 701.52"/>
    <polyline class="st1" points="152.38 572.28 151.72 572.7 377.08 702"/>
    <polyline class="st1" points="151.72 572.7 377.44 703.02 377.08 702"/>
    <line class="st1" x1="169.9" y1="562.2" x2="377.02" y2="681.78"/>
    <polyline class="st1" points="169.9 562.2 169.84 562.2 377.02 681.78"/>
    <line class="st1" x1="169.84" y1="562.2" x2="377.02" y2="681.84"/>
    <polyline class="st1" points="169.84 562.2 169.72 562.32 377.02 681.84"/>
    <line class="st1" x1="169.72" y1="562.32" x2="377.02" y2="682.02"/>
    <line class="st1" x1="169.48" y1="562.44" x2="377.02" y2="682.26"/>
    <polyline class="st1" points="377.02 682.26 169.72 562.32 169.48 562.44"/>
    <line class="st1" x1="403.9" y1="709.8" x2="403.72" y2="709.98"/>
    <line class="st1" x1="404.14" y1="709.32" x2="404.02" y2="709.62"/>
    <line class="st1" x1="404.02" y1="709.62" x2="403.9" y2="709.8"/>
    <line class="st1" x1="404.14" y1="709.02" x2="404.14" y2="709.32"/>
    <polyline class="st1" points="143.2 577.62 142.84 577.8 385.96 717.78 143.2 577.62"/>
    <polyline class="st1" points="142.84 577.8 386.44 718.44 385.96 717.78"/>
    <polyline class="st1" points="142.84 577.8 142.72 577.86 386.44 718.44"/>
    <polyline class="st1" points="142.72 577.86 387.04 718.92 386.44 718.44"/>
    <line class="st1" x1="387.34" y1="719.04" x2="387.04" y2="718.92"/>
    <line class="st1" x1="387.58" y1="719.1" x2="387.34" y2="719.04"/>
    <line class="st1" x1="388.06" y1="718.98" x2="387.88" y2="719.1"/>
    <line class="st1" x1="387.88" y1="719.1" x2="387.58" y2="719.1"/>
    <line class="st1" x1="377.02" y1="700.32" x2="153.82" y2="571.44"/>
    <line class="st1" x1="377.02" y1="682.26" x2="169.48" y2="562.44"/>
    <line class="st1" x1="169.48" y1="562.44" x2="153.82" y2="571.44"/>
    <line class="st1" x1="403.72" y1="709.98" x2="388.06" y2="718.98"/>
    <line class="st1" x1="385.96" y1="717.78" x2="143.2" y2="577.62"/>
    <line class="st1" x1="377.44" y1="703.02" x2="151.72" y2="572.7"/>
    <line class="st1" x1="151.72" y1="572.7" x2="143.2" y2="577.62"/>
    <line class="st1" x1="385.96" y1="717.78" x2="377.44" y2="703.02"/>
    <polyline class="st1" points="151.72 292.14 151.72 572.7 152.2 292.44"/>
    <polyline class="st1" points="151.72 572.7 152.38 572.28 152.2 292.44"/>
    <line class="st1" x1="152.38" y1="572.28" x2="152.74" y2="292.74"/>
    <polyline class="st1" points="152.38 572.28 152.74 572.1 152.74 292.74"/>
    <polyline class="st1" points="152.74 572.1 153.16 571.86 152.8 292.74"/>
    <line class="st1" x1="153.16" y1="571.86" x2="153.34" y2="293.1"/>
    <polyline class="st1" points="153.16 571.86 153.52 571.62 153.34 293.1"/>
    <line class="st1" x1="153.52" y1="571.62" x2="153.82" y2="293.4"/>
    <polyline class="st1" points="153.52 571.62 153.82 571.44 153.82 293.4"/>
    <polyline class="st1" points="169.48 562.44 169.72 562.32 169.48 316.68"/>
    <line class="st1" x1="169.48" y1="316.62" x2="169.48" y2="562.44"/>
    <line class="st1" x1="169.72" y1="562.32" x2="169.78" y2="316.8"/>
    <polyline class="st1" points="169.72 562.32 169.84 562.2 169.78 316.8"/>
    <line class="st1" x1="169.84" y1="562.2" x2="169.9" y2="316.86"/>
    <polyline class="st1" points="169.84 562.2 169.9 562.2 169.9 316.86"/>
    <line class="st1" x1="142.72" y1="577.86" x2="142.72" y2="286.98"/>
    <polyline class="st1" points="142.72 577.86 142.84 577.8 142.72 286.98"/>
    <line class="st1" x1="142.84" y1="577.8" x2="142.84" y2="287.04"/>
    <polyline class="st1" points="142.84 577.8 143.2 577.62 142.84 287.04"/>
    <line class="st1" x1="143.2" y1="577.62" x2="143.2" y2="287.22"/>
    <line class="st1" x1="156.46" y1="309.18" x2="156.58" y2="309.24"/>
    <line class="st1" x1="156.58" y1="309.3" x2="156.82" y2="309.36"/>
    <line class="st1" x1="156.34" y1="309" x2="156.58" y2="309.3"/>
    <line class="st1" x1="156.28" y1="308.58" x2="156.34" y2="309"/>
    <line class="st1" x1="153.82" y1="571.44" x2="169.48" y2="562.44"/>
    <line class="st1" x1="169.48" y1="562.44" x2="169.48" y2="316.62"/>
    <line class="st1" x1="153.82" y1="571.44" x2="153.82" y2="293.4"/>
    <line class="st1" x1="143.2" y1="577.62" x2="143.2" y2="287.22"/>
    <line class="st1" x1="143.2" y1="577.62" x2="151.72" y2="572.7"/>
    <line class="st1" x1="151.72" y1="572.7" x2="151.72" y2="292.14"/>
    <line class="st1" x1="156.28" y1="308.58" x2="156.34" y2="308.64"/>
    <line class="st1" x1="156.28" y1="294.78" x2="156.28" y2="308.58"/>
    <line class="st1" x1="156.34" y1="308.94" x2="377.02" y2="435.96"/>
    <line class="st1" x1="377.02" y1="435.96" x2="156.28" y2="308.52"/>
    <line class="st1" x1="156.34" y1="308.94" x2="377.02" y2="436.32"/>
    <line class="st1" x1="156.46" y1="309.12" x2="377.02" y2="436.32"/>
    <line class="st1" x1="156.46" y1="309.12" x2="377.02" y2="436.44"/>
    <line class="st1" x1="377.02" y1="435.96" x2="156.28" y2="308.52"/>
  </g>
  <g id="Layer_4">
    <g id="Layer_41" data-name="Layer_4">
      <line class="st0" x1="812.98" y1="527.22" x2="387.1" y2="773.16"/>
      <line class="st0" x1="387.1" y1="773.16" x2="138.64" y2="629.7"/>
      <line class="st0" x1="90.65" y1="574.83" x2="90.65" y2="274.32"/>
      <path d="M41.2,452.8v-63.7h7.7v25.77c1.87-1.99,3.95-3.58,6.23-4.78s4.9-1.8,7.87-1.8c2.39,0,4.5.4,6.33,1.19s3.36,1.92,4.58,3.37c1.23,1.46,2.15,3.21,2.79,5.25.63,2.05.95,4.31.95,6.79v27.89h-7.7v-27.89c0-3.32-.76-5.89-2.27-7.72-1.51-1.83-3.83-2.75-6.94-2.75-2.28,0-4.4.55-6.38,1.64-1.98,1.1-3.8,2.58-5.47,4.45v32.26h-7.7v.03h0Z"/>
      <path d="M236.41,768.16c-1.1,0-1.79-.53-2.08-1.6l-.69-5.32c-1.87,2.28-4.01,4.1-6.42,5.47s-5.17,2.05-8.28,2.05c-2.51,0-4.79-.48-6.83-1.45-2.05-.97-3.79-2.39-5.23-4.26s-2.55-4.21-3.33-7-1.17-6.01-1.17-9.64c0-3.23.43-6.23,1.3-9.02.86-2.78,2.11-5.2,3.74-7.24,1.63-2.05,3.61-3.65,5.95-4.82s4.99-1.75,7.96-1.75c2.68,0,4.97.45,6.88,1.36,1.9.91,3.6,2.18,5.1,3.83v-24.3h7.7v63.7h-4.6ZM221.49,762.53c2.51,0,4.71-.58,6.59-1.73,1.89-1.15,3.62-2.78,5.21-4.89v-21.19c-1.41-1.9-2.96-3.24-4.65-4s-3.55-1.15-5.6-1.15c-4.09,0-7.24,1.46-9.43,4.37-2.19,2.91-3.29,7.06-3.29,12.45,0,2.85.24,5.3.74,7.33.49,2.03,1.21,3.7,2.16,5.02.95,1.31,2.12,2.27,3.5,2.88s2.97.91,4.76.91h0Z"/>
      <path d="M611.2,652.19h6.05c.63,0,1.15.16,1.56.48.4.32.68.69.82,1.12l8.39,28.19c.23,1.04.45,2.04.65,3.01.2.97.37,1.94.52,2.92.23-.98.49-1.95.78-2.92s.59-1.97.91-3.01l9.25-28.37c.14-.43.4-.79.76-1.08.36-.29.81-.43,1.36-.43h3.33c.58,0,1.05.14,1.43.43.37.29.63.65.78,1.08l9.04,28.37c.32,1.01.6,2,.84,2.98s.48,1.95.71,2.9c.14-.95.33-1.95.56-2.98.23-1.04.48-2,.74-2.9l8.56-28.19c.14-.46.42-.84.82-1.15.4-.3.88-.45,1.43-.45h5.79l-14.18,43.8h-6.1c-.75,0-1.27-.49-1.56-1.47l-9.69-29.71c-.23-.66-.42-1.33-.56-2.01s-.29-1.35-.43-2.01c-.15.66-.29,1.34-.43,2.03s-.33,1.37-.56,2.03l-9.82,29.66c-.32.98-.91,1.47-1.77,1.47h-5.79l-14.18-43.8h-.01Z"/>
      <circle class="st3" cx="90.65" cy="274.32" r="4.4"/>
      <circle class="st3" cx="90.65" cy="575.88" r="4.4"/>
      <circle class="st3" cx="138.64" cy="629.7" r="4.4"/>
      <circle class="st3" cx="387.1" cy="773.16" r="4.4"/>
      <circle class="st3" cx="812.98" cy="527.22" r="4.4"/>
    </g>
    <line class="st2" x1="564.52" y1="29.64" x2="811.9" y2="172.5"/>
    <line class="st2" x1="139.66" y1="274.92" x2="564.52" y2="29.64"/>
    <line class="st2" x1="811.9" y1="172.5" x2="387.04" y2="417.78"/>
    <line class="st2" x1="387.04" y1="428.04" x2="811.9" y2="182.7"/>
    <line class="st2" x1="811.9" y1="182.7" x2="811.9" y2="172.5"/>
    <line class="st2" x1="139.66" y1="285.18" x2="387.04" y2="428.04"/>
    <line class="st2" x1="387.04" y1="417.78" x2="139.66" y2="274.92"/>
    <line class="st2" x1="139.66" y1="285.18" x2="139.66" y2="274.92"/>
    <line class="st2" x1="387.04" y1="417.78" x2="387.04" y2="428.04"/>
  </g>
</svg>